<?xml version="1.0" standalone="no"?>
<!DOCTYPE svg PUBLIC "-//W3C//DTD SVG 20010904//EN"
 "http://www.w3.org/TR/2001/REC-SVG-20010904/DTD/svg10.dtd">
<svg version="1.0" xmlns="http://www.w3.org/2000/svg"
 width="7846.000000pt" height="6398.000000pt" viewBox="0 0 7846.000000 6398.000000"
 preserveAspectRatio="xMidYMid meet">
<metadata>
Created by potrace 1.16, written by Peter Selinger 2001-2019
</metadata>
<g transform="translate(0.000000,6398.000000) scale(0.100000,-0.100000)"
fill="#FF0000" stroke="none">
<path d="M58606 55579 c2 -3 -47 -6 -109 -6 -133 0 -290 -9 -467 -27 -96 -10
-206 -20 -237 -20 -18 -1 -33 -5 -33 -10 0 -4 -9 -6 -19 -3 -11 3 -50 -1 -86
-9 -37 -8 -70 -12 -74 -10 -3 2 -35 -2 -70 -10 -35 -8 -70 -13 -77 -10 -8 3
-14 1 -14 -5 0 -6 -6 -9 -14 -6 -8 3 -38 -1 -68 -8 -29 -8 -73 -17 -98 -20
-25 -3 -69 -12 -98 -19 -30 -8 -60 -12 -68 -9 -8 3 -14 0 -14 -7 0 -6 -4 -9
-9 -6 -5 3 -32 -1 -60 -10 -29 -8 -65 -17 -81 -19 -17 -2 -56 -11 -87 -21 -32
-9 -67 -18 -78 -20 -11 -1 -20 -3 -20 -4 0 -1 -7 -3 -16 -5 -9 -1 -43 -11 -75
-20 -33 -9 -68 -19 -79 -21 -11 -2 -53 -15 -92 -28 -40 -14 -73 -23 -73 -21 0
2 -36 -10 -80 -26 -44 -16 -80 -27 -80 -25 0 3 -39 -11 -87 -30 -49 -19 -92
-34 -98 -34 -10 0 -112 -39 -240 -91 -38 -16 -79 -31 -91 -33 -12 -3 -53 -20
-93 -40 -39 -20 -71 -34 -71 -32 0 6 -164 -70 -252 -116 -32 -16 -58 -27 -58
-23 0 3 -6 1 -12 -4 -24 -20 -188 -101 -188 -94 0 5 -4 4 -8 -2 -4 -5 -23 -18
-42 -29 -19 -10 -63 -34 -97 -52 -156 -84 -399 -230 -568 -343 -71 -47 -134
-88 -140 -90 -5 -2 -50 -34 -100 -70 -49 -37 -101 -74 -115 -84 -222 -155
-604 -480 -851 -723 -69 -68 -132 -124 -139 -124 -7 0 -10 -3 -7 -7 4 -4 -17
-32 -47 -62 -120 -125 -153 -161 -253 -276 -155 -178 -161 -185 -211 -247 -25
-32 -49 -58 -54 -58 -5 0 -7 -4 -3 -9 3 -5 1 -13 -5 -16 -19 -12 -200 -255
-301 -405 -28 -41 -56 -78 -62 -82 -7 -4 -7 -8 -2 -8 6 0 5 -4 -1 -8 -6 -4
-30 -38 -54 -77 -23 -38 -48 -77 -55 -85 -7 -8 -32 -48 -55 -89 -23 -41 -46
-79 -52 -85 -15 -18 -91 -150 -174 -306 -42 -80 -81 -148 -86 -151 -6 -3 -9
-9 -9 -13 1 -3 -27 -66 -63 -139 -35 -72 -66 -142 -70 -154 -4 -13 -12 -23
-17 -23 -6 0 -8 -4 -4 -9 3 -5 1 -12 -4 -15 -5 -3 -19 -35 -32 -71 -12 -36
-26 -65 -31 -65 -4 0 -7 -3 -6 -7 0 -5 -6 -24 -14 -43 -9 -19 -22 -54 -29 -77
-6 -24 -16 -43 -21 -43 -5 0 -6 -4 -3 -10 3 -5 2 -10 -3 -10 -5 0 -17 -29 -27
-64 -10 -36 -23 -62 -28 -59 -6 3 -7 1 -4 -4 4 -6 0 -24 -8 -39 -8 -15 -20
-50 -26 -76 -7 -26 -16 -48 -21 -48 -4 0 -5 -7 -2 -15 4 -8 2 -15 -3 -15 -5 0
-17 -31 -27 -70 -10 -38 -23 -70 -28 -70 -6 0 -8 -7 -5 -15 4 -8 3 -17 -2 -19
-4 -3 -14 -30 -21 -61 -7 -30 -17 -55 -21 -55 -5 0 -6 -7 -3 -15 4 -8 2 -21
-4 -28 -5 -6 -17 -46 -27 -87 -10 -41 -21 -79 -25 -85 -4 -5 -13 -40 -21 -77
-7 -38 -16 -68 -20 -68 -4 0 -8 -8 -8 -17 0 -33 -24 -128 -34 -134 -5 -4 -6
-16 -3 -27 4 -11 3 -23 -3 -26 -5 -3 -12 -33 -16 -66 -4 -33 -10 -60 -15 -60
-4 0 -11 -30 -15 -67 -4 -38 -10 -72 -13 -77 -3 -5 -7 -21 -8 -35 -1 -14 -7
-48 -13 -76 -15 -70 -20 -102 -27 -168 -3 -31 -9 -55 -13 -52 -4 2 -9 -15 -9
-38 -1 -23 -7 -78 -13 -122 -5 -44 -14 -118 -19 -165 -4 -47 -13 -116 -19
-155 -37 -253 -45 -983 -14 -1380 4 -49 7 -107 7 -127 0 -21 3 -38 7 -38 4 0
7 -15 7 -32 -2 -52 11 -185 22 -234 6 -25 8 -50 5 -55 -4 -5 -3 -14 1 -20 7
-12 16 -73 18 -121 1 -16 5 -28 10 -28 4 0 6 -6 3 -14 -3 -8 1 -42 9 -77 8
-34 12 -64 9 -67 -3 -3 0 -11 7 -19 6 -7 8 -16 6 -19 -3 -3 1 -30 9 -61 8 -30
12 -58 9 -61 -3 -3 -1 -11 6 -19 6 -7 8 -16 5 -19 -3 -3 3 -35 13 -71 10 -37
16 -72 13 -80 -3 -7 0 -13 7 -13 6 0 9 -4 6 -9 -3 -5 1 -32 10 -60 8 -28 12
-56 9 -61 -3 -6 -1 -10 5 -10 7 0 10 -7 6 -15 -3 -8 -1 -15 5 -15 6 0 8 -4 5
-8 -3 -5 4 -37 15 -71 10 -35 17 -67 13 -72 -3 -5 0 -9 6 -9 6 0 9 -4 6 -8 -3
-5 4 -33 15 -62 11 -30 22 -66 24 -80 2 -14 9 -51 15 -83 6 -32 8 -66 5 -76
-3 -11 -2 -22 2 -24 5 -3 9 -37 8 -76 0 -39 3 -71 6 -71 3 0 6 -38 7 -85 0
-47 1 -86 3 -87 1 -2 3 -81 4 -175 1 -95 4 -175 6 -178 3 -2 2 -37 -2 -77 -4
-40 -5 -102 -2 -138 3 -36 1 -117 -6 -180 -6 -63 -14 -189 -17 -280 -4 -91
-10 -169 -14 -175 -4 -5 -10 -48 -14 -95 -10 -156 -18 -225 -27 -234 -5 -6 -9
-34 -9 -63 0 -29 -4 -53 -10 -53 -5 0 -9 -3 -8 -7 5 -21 -15 -183 -23 -183 -5
0 -8 -3 -7 -7 4 -19 -15 -153 -22 -153 -5 0 -11 -32 -15 -70 -4 -39 -11 -72
-16 -75 -4 -3 -6 -12 -2 -20 3 -9 1 -21 -5 -28 -6 -6 -13 -38 -17 -69 -4 -32
-11 -58 -16 -58 -5 0 -6 -7 -3 -15 4 -8 2 -21 -4 -28 -5 -6 -13 -36 -17 -64
-4 -29 -11 -53 -16 -53 -4 0 -6 -7 -3 -15 4 -8 2 -21 -3 -28 -6 -6 -16 -40
-23 -74 -7 -35 -17 -63 -22 -63 -5 0 -7 -9 -3 -19 3 -11 2 -22 -3 -25 -5 -3
-15 -33 -22 -66 -7 -33 -17 -60 -22 -60 -6 0 -8 -7 -5 -15 4 -8 2 -17 -2 -19
-4 -3 -14 -33 -21 -66 -7 -33 -17 -60 -22 -60 -5 0 -6 -5 -3 -10 4 -6 2 -16
-3 -23 -6 -7 -16 -34 -22 -60 -7 -26 -17 -47 -22 -47 -5 0 -6 -5 -3 -10 4 -6
1 -17 -5 -25 -7 -8 -9 -15 -5 -15 4 0 3 -6 -3 -12 -5 -7 -17 -40 -27 -73 -9
-33 -20 -62 -25 -65 -4 -3 -20 -43 -35 -90 -15 -47 -31 -87 -35 -90 -3 -3 -17
-34 -30 -70 -13 -36 -29 -68 -34 -72 -6 -4 -7 -8 -2 -8 5 0 4 -6 -1 -12 -5 -7
-20 -40 -33 -73 -13 -33 -33 -78 -45 -100 -13 -22 -31 -61 -40 -87 -10 -27
-22 -48 -27 -48 -5 0 -6 -4 -3 -10 3 -5 1 -10 -4 -10 -6 0 -11 -6 -11 -14 0
-17 -129 -269 -142 -277 -5 -3 -9 -9 -8 -13 2 -8 -80 -169 -90 -176 -4 -3 -22
-33 -40 -67 -18 -35 -37 -63 -42 -63 -5 0 -7 -4 -3 -9 3 -5 -2 -17 -11 -25 -8
-9 -12 -16 -7 -16 4 0 3 -4 -3 -8 -6 -4 -28 -36 -48 -72 -21 -36 -63 -104 -94
-151 -31 -47 -79 -119 -105 -160 -27 -41 -54 -78 -61 -84 -6 -5 -27 -35 -46
-65 -44 -69 -158 -221 -178 -237 -9 -7 -12 -13 -6 -13 5 0 2 -6 -6 -13 -8 -7
-41 -47 -73 -89 -32 -42 -61 -78 -65 -80 -4 -2 -27 -30 -52 -63 -24 -33 -71
-89 -103 -125 -32 -36 -91 -101 -130 -144 -314 -348 -703 -712 -1037 -969
-105 -82 -221 -169 -247 -187 -11 -8 -72 -51 -134 -95 -63 -44 -122 -84 -131
-90 -10 -5 -42 -26 -70 -46 -103 -70 -244 -159 -252 -159 -4 0 -26 -13 -49
-29 -69 -46 -214 -128 -427 -238 -58 -30 -120 -64 -137 -75 -18 -11 -33 -16
-33 -11 0 4 -4 4 -8 -2 -8 -11 -167 -89 -176 -87 -3 1 -34 -12 -69 -30 -65
-33 -180 -83 -282 -123 -33 -13 -86 -35 -117 -49 -32 -14 -58 -24 -58 -21 0 2
-32 -10 -72 -26 -39 -17 -82 -33 -94 -35 -13 -2 -44 -13 -69 -24 -26 -11 -51
-18 -56 -14 -5 3 -9 1 -9 -4 0 -5 -6 -9 -13 -9 -7 0 -45 -12 -84 -27 -39 -15
-82 -29 -95 -31 -13 -3 -50 -14 -82 -25 -32 -11 -62 -17 -67 -14 -5 3 -9 0 -9
-7 0 -7 -3 -10 -6 -7 -3 4 -37 -5 -76 -18 -39 -13 -74 -22 -76 -19 -3 3 -11 0
-19 -6 -7 -6 -13 -9 -13 -6 0 3 -28 -3 -62 -14 -34 -10 -64 -16 -67 -14 -2 3
-10 0 -18 -6 -7 -6 -13 -9 -13 -6 0 3 -30 -3 -66 -13 -37 -11 -70 -17 -75 -15
-4 3 -10 1 -14 -5 -4 -6 -10 -8 -14 -6 -4 3 -30 -2 -57 -10 -26 -8 -54 -12
-61 -10 -7 3 -13 1 -13 -4 0 -5 -12 -9 -27 -8 -16 0 -54 -7 -87 -16 -32 -8
-62 -14 -66 -11 -3 2 -31 -2 -61 -10 -30 -8 -79 -17 -109 -20 -30 -3 -74 -10
-97 -15 -23 -6 -49 -7 -57 -4 -9 3 -16 2 -16 -2 0 -9 -56 -16 -127 -17 -18 0
-33 -4 -33 -8 0 -5 -12 -8 -27 -8 -28 1 -158 -8 -158 -11 0 -5 -281 -24 -372
-24 -51 -1 -93 -4 -93 -7 0 -9 -645 -4 -658 5 -6 3 -12 2 -14 -3 -4 -11 -332
8 -336 20 -2 5 -43 9 -90 9 -48 0 -114 5 -147 11 -33 6 -80 12 -105 14 -25 2
-81 9 -125 15 -44 6 -104 14 -132 16 -29 3 -53 9 -53 14 0 4 -41 11 -90 14
-50 4 -88 11 -85 16 3 4 -6 7 -20 5 -14 -1 -27 1 -30 5 -2 4 -32 13 -65 20
-33 7 -60 17 -60 22 0 5 -5 6 -10 3 -6 -4 -16 -2 -23 3 -7 6 -40 16 -74 22
-35 7 -63 16 -63 21 0 4 -8 8 -17 8 -30 0 -118 24 -124 34 -4 5 -12 6 -18 2
-7 -4 -17 -2 -24 3 -7 5 -36 13 -64 17 -29 4 -53 11 -53 17 0 5 -9 6 -20 3
-12 -4 -26 -2 -33 3 -7 5 -37 13 -67 17 -30 4 -59 10 -65 13 -5 3 -16 7 -25 8
-8 1 -37 7 -65 14 -27 6 -61 11 -74 11 -13 -1 -29 3 -35 8 -6 5 -46 12 -89 16
-42 4 -80 11 -83 16 -3 5 -27 9 -55 9 -27 0 -49 4 -49 9 0 4 -48 11 -107 15
-60 4 -124 11 -143 16 -19 5 -78 12 -130 15 -52 4 -99 10 -105 13 -14 10 -529
39 -535 31 -3 -4 -41 -4 -85 0 -44 5 -132 7 -195 5 -324 -9 -388 -12 -396 -16
-5 -3 -44 -5 -87 -4 -42 1 -77 -2 -77 -6 0 -4 -15 -6 -32 -6 -50 2 -184 -10
-250 -22 -32 -6 -62 -9 -66 -6 -5 3 -26 1 -49 -4 -22 -5 -67 -12 -99 -15 -32
-3 -78 -10 -101 -15 -23 -6 -49 -7 -57 -4 -9 4 -16 1 -16 -6 0 -7 -6 -10 -14
-7 -8 3 -42 -1 -76 -9 -34 -8 -66 -12 -71 -8 -5 3 -9 0 -9 -6 0 -7 -6 -10 -14
-7 -8 3 -39 -1 -70 -9 -31 -8 -61 -12 -66 -9 -6 3 -10 1 -10 -5 0 -7 -6 -10
-14 -7 -8 3 -43 -3 -78 -14 -34 -10 -69 -17 -75 -14 -7 2 -13 0 -13 -6 0 -6
-6 -9 -12 -6 -7 2 -40 -4 -73 -13 -33 -9 -66 -15 -72 -13 -7 3 -13 0 -13 -7 0
-6 -4 -9 -9 -6 -5 3 -34 -3 -64 -13 -31 -11 -71 -22 -89 -25 -18 -3 -59 -14
-92 -25 -32 -12 -62 -18 -67 -15 -5 3 -9 0 -9 -7 0 -7 -3 -10 -6 -6 -3 3 -36
-5 -72 -18 -36 -13 -69 -22 -74 -19 -4 3 -8 0 -8 -7 0 -7 -3 -10 -6 -6 -4 3
-35 -5 -71 -18 -36 -14 -69 -22 -74 -19 -5 3 -9 0 -9 -6 0 -6 -4 -8 -10 -5 -5
3 -10 1 -10 -5 0 -6 -4 -9 -8 -6 -4 2 -39 -9 -76 -24 -38 -16 -73 -27 -77 -24
-5 3 -9 0 -9 -5 0 -6 -3 -10 -7 -9 -8 3 -141 -47 -225 -84 -26 -12 -55 -21
-63 -21 -8 0 -15 -4 -15 -9 0 -5 -4 -6 -10 -3 -5 3 -10 1 -10 -4 0 -6 -4 -10
-8 -9 -9 3 -86 -31 -262 -115 -47 -23 -89 -42 -95 -43 -5 -1 -79 -39 -164 -83
-85 -45 -156 -81 -158 -81 -2 0 -46 -25 -98 -55 -51 -30 -96 -55 -100 -55 -3
0 -33 -18 -65 -40 -32 -22 -63 -40 -67 -40 -4 0 -35 -18 -67 -39 -33 -22 -63
-38 -68 -35 -4 3 -8 1 -8 -4 0 -8 -213 -152 -225 -152 -3 0 -34 -22 -69 -50
-35 -27 -66 -50 -70 -50 -3 0 -45 -29 -91 -65 -47 -36 -88 -65 -91 -65 -2 0
-40 -29 -84 -65 -44 -36 -82 -65 -85 -65 -3 0 -23 -15 -43 -34 -20 -19 -67
-58 -103 -87 -186 -151 -388 -337 -611 -562 -104 -104 -188 -191 -188 -193 0
-1 -10 -14 -23 -27 -76 -79 -290 -332 -342 -402 -16 -22 -34 -44 -40 -50 -6
-5 -38 -46 -71 -90 -32 -44 -64 -86 -71 -95 -33 -41 -123 -170 -209 -300 -53
-80 -105 -156 -115 -170 -10 -14 -29 -43 -40 -65 -12 -22 -39 -65 -59 -95 -20
-30 -49 -79 -64 -109 -15 -29 -32 -59 -38 -65 -13 -15 -87 -151 -133 -246 -20
-41 -40 -77 -45 -80 -4 -3 -22 -39 -39 -80 -18 -41 -35 -77 -40 -80 -4 -3 -20
-36 -36 -75 -16 -38 -34 -73 -40 -77 -6 -5 -6 -8 0 -8 6 0 6 -3 0 -8 -6 -4
-24 -41 -39 -82 -16 -41 -32 -77 -36 -80 -4 -3 -18 -35 -31 -72 -13 -38 -27
-68 -31 -68 -4 0 -5 -7 -2 -15 4 -8 2 -15 -3 -15 -6 0 -18 -27 -28 -60 -10
-33 -22 -60 -26 -60 -5 0 -6 -7 -3 -15 4 -8 2 -15 -3 -15 -5 0 -20 -36 -32
-80 -13 -44 -28 -80 -33 -80 -6 0 -8 -7 -5 -15 4 -8 2 -17 -2 -19 -5 -3 -17
-37 -27 -76 -10 -38 -21 -70 -25 -70 -3 0 -12 -27 -19 -60 -7 -33 -16 -60 -21
-60 -5 0 -6 -6 -3 -14 3 -8 1 -17 -4 -20 -5 -3 -18 -44 -28 -91 -10 -47 -22
-85 -25 -85 -4 0 -13 -31 -20 -70 -7 -39 -16 -70 -21 -70 -5 0 -7 -9 -3 -19 3
-11 1 -22 -4 -25 -5 -4 -13 -31 -16 -61 -4 -30 -11 -55 -15 -55 -4 0 -8 -10
-8 -22 0 -27 -20 -126 -29 -148 -7 -17 -9 -26 -19 -90 -4 -25 -11 -50 -16 -56
-4 -6 -6 -19 -2 -28 3 -9 2 -22 -4 -29 -5 -6 -13 -47 -17 -90 -4 -42 -11 -80
-16 -83 -5 -3 -9 -27 -9 -55 0 -27 -4 -49 -9 -49 -6 0 -10 -17 -10 -37 0 -21
-5 -74 -11 -118 -6 -44 -15 -116 -19 -160 -4 -44 -13 -116 -19 -160 -38 -275
-46 -958 -16 -1375 3 -41 7 -100 9 -130 2 -30 4 -56 6 -57 1 -2 2 -15 4 -30
12 -150 17 -197 21 -204 2 -4 6 -34 9 -66 3 -32 10 -82 16 -110 6 -29 8 -57 4
-63 -3 -5 -1 -10 6 -10 6 0 9 -8 6 -20 -3 -11 1 -45 10 -76 8 -31 12 -63 9
-70 -3 -8 -1 -14 5 -14 6 0 9 -6 6 -14 -3 -8 1 -39 9 -70 8 -31 12 -61 9 -66
-3 -6 -1 -10 5 -10 7 0 10 -6 7 -12 -2 -7 4 -44 14 -83 10 -38 16 -71 14 -74
-3 -2 0 -10 6 -18 6 -7 9 -13 6 -13 -3 0 3 -30 13 -66 11 -37 17 -71 14 -75
-3 -5 0 -9 6 -9 6 0 9 -4 6 -8 -3 -5 3 -37 14 -72 11 -35 17 -67 14 -72 -3 -4
0 -8 6 -8 6 0 9 -4 6 -9 -3 -5 3 -34 14 -66 11 -32 17 -61 14 -66 -3 -5 0 -9
7 -9 7 0 9 -3 6 -7 -4 -3 -2 -12 4 -20 6 -7 9 -13 5 -13 -3 0 5 -30 19 -67 14
-36 28 -79 30 -95 3 -16 16 -57 29 -91 12 -34 32 -89 43 -122 40 -114 46 -130
73 -200 67 -170 85 -220 82 -227 -1 -5 3 -8 9 -8 5 0 7 -4 4 -10 -3 -5 -1 -10
6 -10 7 0 10 -3 6 -6 -3 -4 9 -37 28 -74 19 -37 31 -70 28 -74 -4 -3 0 -6 7
-6 7 0 11 -3 7 -6 -3 -4 10 -37 29 -75 19 -38 31 -69 27 -69 -5 0 -3 -4 2 -8
12 -8 164 -312 163 -326 0 -5 4 -12 9 -15 4 -3 14 -17 22 -31 79 -140 142
-251 157 -280 10 -19 22 -36 27 -38 4 -2 7 -8 7 -12 0 -5 25 -48 55 -95 30
-46 55 -87 55 -89 0 -4 133 -204 192 -289 37 -53 128 -178 182 -250 28 -38 50
-71 48 -73 -2 -3 6 -13 18 -22 11 -9 37 -38 58 -64 20 -26 59 -76 86 -110 27
-35 70 -86 95 -113 25 -28 96 -107 156 -175 107 -121 510 -530 522 -530 3 0
11 -6 17 -14 14 -17 186 -169 246 -217 25 -20 56 -47 71 -60 28 -27 143 -116
252 -197 40 -30 74 -57 77 -61 3 -4 43 -34 90 -66 47 -33 90 -63 95 -68 9 -8
53 -37 215 -143 36 -24 70 -47 76 -52 5 -5 47 -31 93 -58 45 -27 121 -72 169
-101 48 -29 119 -69 157 -89 39 -20 73 -42 77 -48 4 -6 8 -7 8 -1 0 7 3 7 8 0
4 -5 70 -41 147 -80 77 -38 143 -73 146 -78 3 -5 9 -9 12 -8 4 0 32 -11 62
-24 31 -14 60 -25 65 -25 6 0 10 -4 10 -8 0 -4 10 -8 22 -9 11 -1 24 -6 27
-11 3 -4 33 -19 66 -32 33 -13 74 -31 90 -40 17 -10 55 -26 85 -35 30 -10 58
-23 62 -29 4 -6 8 -7 8 -2 0 5 6 4 13 -1 6 -6 44 -21 82 -33 39 -13 72 -26 75
-30 3 -4 39 -18 80 -30 41 -12 77 -26 80 -30 3 -4 36 -15 73 -25 37 -10 70
-22 73 -26 2 -5 11 -6 19 -2 8 3 15 1 15 -4 0 -5 36 -18 80 -28 44 -10 80 -22
80 -26 0 -4 29 -13 65 -20 36 -7 65 -16 65 -20 0 -4 9 -5 20 -2 11 3 20 1 20
-4 0 -5 31 -15 70 -22 38 -7 72 -17 75 -21 3 -5 13 -9 23 -9 24 0 114 -20 132
-30 8 -4 52 -14 98 -21 45 -8 82 -17 82 -21 0 -4 32 -10 70 -14 39 -4 70 -11
70 -16 0 -5 12 -9 28 -9 49 1 132 -12 132 -21 0 -5 15 -9 33 -9 55 1 157 -12
157 -20 0 -4 33 -11 73 -14 155 -14 183 -17 217 -26 19 -6 74 -10 122 -10 47
0 88 -4 90 -9 4 -11 478 -39 478 -28 0 5 19 5 43 1 53 -9 457 -11 457 -2 0 3
43 5 95 4 52 -2 97 0 100 3 4 3 41 6 83 7 42 1 79 3 82 4 3 1 19 3 35 5 42 3
203 16 245 20 19 2 37 5 40 6 3 1 16 3 30 5 79 7 117 13 132 19 9 4 21 4 25 2
5 -3 39 1 77 9 37 8 72 12 76 9 5 -3 11 -1 15 5 4 6 10 8 15 5 5 -3 36 1 71 9
34 8 65 13 69 11 4 -2 32 3 64 11 31 8 61 12 66 9 6 -3 10 -1 10 5 0 7 7 10
15 7 8 -4 17 -2 20 4 4 5 10 7 14 5 4 -3 32 1 61 9 29 8 57 12 62 9 4 -3 8 0
8 6 0 7 6 10 14 7 8 -3 42 3 76 14 34 10 66 17 71 13 5 -3 9 0 9 6 0 7 6 10
13 7 6 -2 46 7 87 19 41 13 76 21 78 19 2 -2 35 8 74 21 39 13 74 21 79 18 5
-3 9 0 9 5 0 6 9 11 20 11 10 0 49 11 86 24 37 14 71 23 76 20 4 -3 8 -1 8 4
0 5 6 9 13 9 14 0 254 81 278 93 9 5 27 11 40 14 13 2 49 16 80 30 31 13 60
22 63 19 3 -4 6 -2 6 4 0 5 6 10 13 10 6 0 45 14 85 32 41 18 82 34 92 36 9 2
40 15 67 29 28 14 53 22 57 19 3 -4 6 -1 6 5 0 9 21 20 50 27 10 3 166 77 223
106 31 16 57 27 57 24 0 -3 6 -1 13 5 22 18 167 91 167 83 0 -4 6 1 13 11 7 9
19 18 27 19 8 2 48 22 88 45 146 85 216 125 236 136 12 6 88 54 169 106 82 52
156 100 165 105 73 45 344 238 472 337 106 82 180 142 274 223 44 39 99 85
121 104 165 141 493 462 655 642 47 52 97 107 113 122 15 16 27 31 27 34 0 5
36 47 92 105 20 22 37 41 37 44 0 2 14 21 30 42 65 81 168 212 201 258 118
160 163 224 187 262 16 24 46 69 68 100 23 32 54 80 69 107 16 28 36 59 46 70
9 11 36 54 60 95 24 41 78 136 121 210 43 74 82 140 86 145 5 6 10 13 11 18 3
18 78 163 87 169 6 5 6 8 0 8 -6 0 -6 3 0 8 6 4 26 41 44 82 19 41 37 77 41
80 4 3 19 38 35 78 15 39 32 72 37 72 5 0 7 4 3 9 -3 5 -1 12 4 15 5 3 19 35
32 71 12 36 26 65 31 65 4 0 7 3 6 8 -1 4 6 25 15 46 10 22 20 50 23 63 4 13
10 23 15 23 5 0 6 7 3 15 -4 8 -1 15 7 15 7 0 9 3 6 7 -4 3 -3 11 2 17 4 6 16
36 26 66 10 30 20 60 24 65 3 6 6 12 7 15 0 3 6 19 13 35 7 17 18 49 24 73 6
23 15 42 19 42 4 0 5 7 2 15 -4 8 -2 15 3 15 6 0 16 25 23 55 7 30 17 55 21
55 4 0 5 9 2 20 -3 11 -1 20 4 20 5 0 18 36 28 80 10 44 23 80 28 80 5 0 7 7
4 15 -4 8 -2 17 2 20 5 2 14 34 21 70 7 36 16 65 20 65 4 0 13 34 20 75 7 41
17 75 21 75 5 0 6 7 3 15 -4 8 -2 21 4 28 6 6 13 33 17 60 4 26 11 47 16 47 4
0 8 12 8 28 0 37 23 156 32 162 4 3 10 35 14 73 4 37 11 67 16 67 4 0 8 12 8
28 -1 49 13 132 22 132 5 0 9 15 8 33 -1 56 13 167 22 167 5 0 9 29 9 65 0 37
4 65 10 65 6 0 10 33 10 79 0 44 4 82 8 85 5 3 12 76 15 162 3 86 10 161 16
167 14 18 19 792 6 1002 -13 210 -23 346 -26 355 -2 6 -5 30 -12 115 -3 33 -6
60 -7 60 -1 0 -4 14 -5 30 -9 85 -13 111 -20 127 -4 9 -4 21 -2 25 3 5 -1 37
-8 72 -7 35 -11 70 -8 78 3 7 0 13 -7 13 -7 0 -10 6 -7 14 3 8 0 40 -8 72 -7
31 -11 63 -8 70 2 6 -1 15 -6 19 -6 3 -9 10 -7 14 3 4 -2 33 -10 65 -8 31 -12
61 -9 66 3 6 1 10 -5 10 -7 0 -10 6 -7 13 2 6 -2 33 -8 58 -12 45 -12 46 10
41 19 -3 23 1 27 27 3 17 2 33 0 36 -3 2 -7 21 -9 42 -7 67 -12 98 -14 98 -2
0 -11 92 -13 133 0 17 -3 32 -6 32 -6 0 -13 87 -12 153 0 20 -3 37 -7 37 -3 0
-6 31 -6 70 0 38 -3 70 -6 70 -6 0 -10 89 -13 252 0 54 -3 98 -6 98 -10 0 -2
620 9 740 6 63 11 151 11 195 0 44 5 100 11 125 6 25 15 90 20 145 5 55 16
152 25 215 8 63 17 139 20 168 3 28 9 52 14 52 4 0 11 41 14 90 4 50 11 90 16
90 4 0 11 34 15 75 4 41 10 75 14 75 5 0 8 12 9 28 0 34 20 130 32 157 5 11
14 52 21 90 6 39 16 75 20 81 5 6 6 14 2 17 -3 4 -1 12 5 19 5 7 13 34 17 61
4 26 11 50 16 53 5 3 7 10 3 15 -3 5 -1 15 4 22 6 7 16 40 22 75 7 34 17 62
22 62 6 0 8 7 5 15 -4 8 -2 17 2 19 4 3 14 33 21 66 7 33 17 60 22 60 5 0 6 5
3 10 -4 6 -2 16 3 23 5 7 15 36 23 65 7 28 17 52 21 52 5 0 6 5 3 10 -4 6 -2
16 3 23 5 7 19 46 32 87 12 41 25 77 29 80 4 3 17 40 31 83 13 42 28 77 33 77
6 0 7 3 4 7 -4 3 -3 11 1 17 5 6 19 40 32 76 12 36 26 70 30 75 5 6 20 40 33
77 14 36 32 77 40 90 8 13 22 44 32 71 10 26 21 47 26 47 5 0 6 7 3 15 -4 8
-1 15 6 15 6 0 8 5 5 10 -3 6 -1 10 4 10 6 0 11 5 11 12 0 17 142 302 154 310
7 5 7 8 1 8 -7 0 -7 3 0 8 6 4 21 31 35 61 14 30 30 60 37 66 6 6 27 43 46 81
19 38 47 86 61 107 14 21 36 57 47 80 12 23 36 62 53 87 18 25 43 64 56 88 13
23 28 42 32 42 5 0 7 4 4 9 -4 5 -3 11 2 13 4 1 29 38 55 80 27 43 54 84 61
90 7 7 33 45 58 83 49 73 167 236 177 245 3 3 25 31 49 63 23 31 47 57 53 57
6 0 8 4 5 9 -3 5 4 19 17 33 12 13 38 44 57 68 273 352 906 982 1239 1235 29
22 72 56 94 75 23 20 52 42 63 50 12 8 57 42 100 75 44 33 84 62 89 65 6 3 43
30 84 60 41 30 77 55 81 55 3 0 24 14 45 31 32 25 189 129 291 191 10 7 50 31
88 55 39 24 79 48 90 53 12 6 53 28 91 51 130 77 223 127 231 124 4 -1 10 2
13 7 9 13 311 164 311 155 0 -4 4 -1 9 6 4 7 14 15 22 16 8 1 48 19 89 39 107
51 237 108 258 112 9 2 49 17 87 33 127 54 207 85 221 85 8 0 14 5 14 10 0 6
3 8 6 5 3 -4 37 7 76 23 39 16 81 31 92 33 12 2 52 16 90 30 37 14 72 23 77
20 5 -3 9 0 9 7 0 7 3 10 6 6 4 -3 29 3 57 13 27 11 54 17 59 14 4 -3 8 0 8 6
0 7 7 10 15 6 8 -3 15 -1 15 5 0 6 4 8 8 5 5 -3 31 3 58 13 27 11 65 22 84 25
19 3 64 15 99 25 35 11 68 18 73 15 4 -3 8 -1 8 5 0 5 8 9 18 9 9 -1 43 6 75
16 32 9 62 14 67 11 6 -3 10 -1 10 5 0 6 4 9 9 6 4 -3 39 3 76 14 37 11 71 17
76 15 4 -3 10 -1 14 5 4 6 10 8 14 6 4 -3 33 2 65 10 31 8 61 12 66 9 5 -3 11
-1 15 5 4 6 10 8 14 6 4 -3 35 1 69 9 35 8 66 14 70 14 4 -1 9 0 12 1 6 2 40
7 96 13 23 2 47 8 53 11 6 4 15 5 19 2 4 -3 26 -1 48 4 21 5 68 12 104 15 36
3 88 9 115 14 28 5 59 9 70 9 22 0 150 10 150 13 0 3 150 12 232 13 51 0 93 3
93 6 0 3 78 6 173 5 94 0 177 3 182 6 6 3 42 3 80 -2 39 -4 102 -5 140 -2 39
3 120 0 180 -6 61 -6 182 -13 270 -17 88 -3 169 -9 180 -14 11 -5 58 -12 105
-15 182 -13 220 -17 220 -25 0 -4 30 -10 68 -14 37 -3 78 -8 92 -11 14 -2 51
-8 83 -11 31 -4 57 -10 57 -14 0 -4 36 -11 80 -14 44 -4 80 -11 80 -16 0 -5
12 -9 28 -9 38 0 142 -23 142 -32 0 -4 8 -5 19 -2 10 3 22 0 25 -6 4 -6 29
-13 56 -17 28 -4 50 -10 50 -15 0 -5 7 -6 15 -3 8 4 21 2 28 -4 6 -5 36 -13
64 -17 29 -4 55 -11 58 -16 3 -4 12 -6 20 -2 9 3 21 1 28 -5 7 -6 40 -14 75
-18 34 -3 62 -10 62 -14 0 -5 34 -11 75 -15 41 -4 75 -11 75 -16 0 -4 12 -8
28 -8 43 0 137 -13 142 -21 5 -7 159 -26 295 -36 39 -3 75 -9 80 -14 6 -4 42
-8 80 -9 39 -1 99 -7 135 -12 93 -15 414 -36 420 -28 3 4 46 3 95 -1 50 -4
191 -5 315 -2 124 2 267 5 317 6 51 0 93 4 93 8 0 4 17 7 38 6 33 -1 78 2 262
17 25 2 46 5 48 6 1 1 14 3 30 4 15 2 50 5 79 8 28 3 56 8 62 12 6 3 15 4 19
1 5 -3 39 1 77 9 37 8 71 13 74 10 4 -2 45 5 91 15 46 10 87 17 90 15 4 -2 31
2 61 10 30 8 74 17 99 20 24 3 61 10 82 16 21 5 43 7 48 4 6 -3 10 -1 10 5 0
7 7 10 15 7 8 -4 17 -2 20 4 4 5 10 7 14 5 4 -3 29 1 55 9 27 8 52 12 57 9 5
-3 9 -1 9 4 0 5 12 9 28 10 15 0 53 10 85 21 32 11 64 18 72 14 8 -3 15 0 15
7 0 6 4 9 9 6 5 -3 34 3 66 14 32 11 61 17 66 14 5 -3 9 -1 9 5 0 5 8 10 18 9
9 0 43 9 76 21 32 11 62 18 67 15 5 -3 9 0 9 7 0 7 3 10 6 6 3 -3 41 7 84 23
43 16 81 26 84 23 3 -4 6 -2 6 3 0 5 8 10 18 11 9 1 46 13 81 27 36 15 70 26
77 26 7 0 43 14 80 30 37 17 75 32 84 33 9 2 50 17 91 34 162 68 214 88 222
85 4 -1 7 2 7 7 0 5 10 13 23 16 21 6 70 29 242 111 44 21 83 37 88 36 4 -1 7
3 7 10 0 6 3 9 6 5 3 -3 28 8 56 24 28 17 78 43 112 59 65 32 143 74 255 139
38 23 74 41 80 41 6 0 11 5 11 10 0 6 5 10 11 10 5 0 37 18 69 40 32 22 62 40
65 40 4 0 46 26 94 58 47 32 93 61 101 65 8 4 67 43 130 87 63 45 131 92 150
106 68 47 99 70 199 146 110 84 131 101 295 240 233 198 423 374 601 559 177
185 208 219 442 494 14 17 46 56 71 88 25 31 49 57 54 57 5 0 7 4 3 9 -3 5 -1
12 5 16 28 17 308 411 420 591 25 40 53 81 62 91 8 10 30 46 47 80 17 34 35
64 41 68 6 4 29 41 51 83 61 116 106 196 117 208 6 7 8 15 5 18 -4 3 -1 6 6 6
7 0 10 4 7 9 -4 5 -3 11 1 13 5 1 23 36 42 76 19 39 37 72 41 72 3 0 16 27 29
60 13 33 27 60 30 60 4 0 7 10 8 22 1 11 6 24 11 27 5 3 24 42 42 86 19 44 37
82 40 85 4 3 18 33 30 68 12 34 26 62 31 62 5 0 6 7 3 15 -4 8 -2 15 3 15 6 0
16 19 22 43 7 23 20 58 29 77 8 19 16 37 16 40 1 3 6 14 12 25 6 11 17 41 24
68 7 26 16 47 21 47 5 0 6 7 3 15 -4 8 -2 15 4 15 5 0 18 29 27 65 10 36 22
65 27 65 5 0 6 5 3 10 -4 6 -2 16 3 23 5 7 18 41 28 77 10 36 22 68 27 71 5 4
7 11 3 17 -3 6 -2 13 2 16 5 3 15 33 22 66 7 33 17 60 22 60 6 0 8 6 5 14 -3
7 -2 17 2 22 5 5 14 37 21 72 7 34 16 65 21 67 4 3 13 37 20 75 7 39 16 70 21
70 5 0 7 9 3 19 -3 11 -1 22 4 25 5 4 13 31 16 61 4 30 11 55 15 55 4 0 8 10
8 23 2 41 25 157 32 157 4 0 11 30 15 68 4 37 10 72 13 77 4 6 8 21 9 35 4 45
14 105 21 120 3 8 7 26 8 40 9 94 18 150 24 150 4 0 8 28 9 62 1 33 5 66 8 71
7 12 20 129 32 297 5 63 14 146 20 183 6 37 13 171 15 296 2 126 6 234 10 239
3 6 2 12 -4 14 -7 2 -8 29 -2 80 4 42 5 75 1 73 -3 -3 -6 48 -6 113 0 111 -5
217 -20 417 -4 50 -7 107 -7 128 0 20 -3 37 -7 37 -4 0 -7 15 -7 33 1 29 -9
142 -13 142 0 0 -3 16 -5 35 -9 100 -12 119 -18 129 -4 6 -5 15 -2 19 3 4 0
28 -5 52 -6 24 -12 64 -14 88 -3 24 -12 73 -20 109 -9 36 -14 68 -11 70 2 2
-4 36 -14 75 -10 38 -16 76 -13 84 3 8 0 14 -7 14 -6 0 -9 4 -6 9 3 4 -3 39
-14 77 -10 37 -17 71 -15 74 2 4 -5 35 -16 69 -10 35 -17 67 -13 72 3 5 1 9
-5 9 -5 0 -9 8 -9 18 1 9 -9 51 -21 92 -13 41 -25 83 -27 95 -2 11 -15 53 -28
93 -14 39 -23 72 -21 72 2 0 -5 25 -15 56 -11 31 -18 60 -15 64 3 5 1 10 -4
12 -6 1 -12 14 -14 28 -3 14 -14 49 -26 77 -11 29 -22 63 -25 75 -2 13 -18 58
-35 101 -17 43 -31 82 -31 88 0 5 -15 44 -34 87 -18 42 -38 91 -44 107 -5 17
-31 80 -57 140 -26 61 -47 116 -47 123 -1 6 -5 12 -10 12 -5 0 -6 5 -3 10 3 6
1 10 -4 10 -6 0 -11 4 -11 9 0 5 -34 80 -76 167 -41 88 -75 161 -74 163 1 2
-2 7 -7 10 -4 3 -35 58 -67 121 -33 63 -70 131 -82 151 -13 20 -20 40 -17 43
4 3 1 6 -5 6 -7 0 -12 4 -12 8 0 14 -149 258 -289 472 -59 91 -230 332 -294
415 -21 27 -56 73 -77 100 -40 51 -71 90 -175 217 -246 302 -654 710 -985 988
-30 25 -69 59 -87 77 -19 18 -37 33 -41 33 -4 1 -23 14 -42 30 -75 62 -187
147 -235 179 -27 19 -54 39 -60 46 -5 6 -46 35 -90 65 -44 29 -82 56 -85 60
-3 4 -43 31 -90 60 -47 28 -87 55 -90 59 -5 8 -86 57 -221 136 -38 23 -78 47
-88 55 -22 15 -118 68 -236 130 -44 24 -83 48 -87 54 -4 6 -8 7 -8 1 0 -6 -3
-6 -8 0 -4 6 -41 26 -82 44 -41 19 -77 37 -80 41 -3 3 -31 17 -62 31 -32 14
-55 30 -50 34 4 5 1 5 -6 1 -7 -4 -27 1 -45 12 -17 11 -53 27 -79 37 -27 10
-48 21 -48 26 0 5 -7 6 -15 3 -8 -4 -15 -2 -15 3 0 5 -29 20 -65 32 -36 13
-65 27 -65 32 0 5 -7 6 -15 3 -8 -4 -15 -2 -15 3 0 5 -34 20 -75 33 -41 13
-75 28 -75 33 0 6 -3 7 -7 4 -3 -4 -11 -3 -17 2 -6 4 -36 16 -66 26 -30 10
-61 22 -67 28 -7 5 -13 6 -13 2 0 -4 -6 -3 -12 3 -7 5 -41 18 -75 27 -35 10
-63 22 -63 27 0 5 -5 6 -10 3 -6 -4 -16 -2 -23 3 -7 5 -36 15 -64 23 -29 7
-53 16 -53 20 0 4 -9 5 -20 2 -11 -3 -20 -1 -20 4 0 5 -36 18 -80 28 -44 10
-80 21 -80 25 0 3 -40 14 -90 24 -49 11 -90 22 -90 26 0 4 -33 13 -72 20 -40
7 -77 16 -83 20 -5 4 -44 13 -85 20 -41 7 -79 16 -85 20 -5 5 -36 11 -67 15
-32 4 -58 11 -58 16 0 4 -12 8 -27 8 -46 1 -117 13 -129 22 -6 5 -19 6 -28 3
-10 -4 -27 -2 -39 4 -12 6 -42 13 -67 16 -25 3 -58 8 -75 11 -16 2 -60 7 -97
11 -38 3 -68 10 -68 15 0 5 -31 9 -70 9 -40 0 -70 4 -70 10 0 6 -38 10 -93 10
-51 0 -97 4 -102 9 -12 12 -376 33 -612 37 -94 1 -176 5 -183 9 -6 4 -16 3
-23 -3 -7 -5 -42 -6 -79 -3 -36 4 -65 3 -62 0z"/>
<path d="M38290 50370 c0 -4 -145 -8 -562 -14 -60 0 -108 -4 -108 -7 0 -3 -39
-7 -87 -7 -95 -2 -268 -9 -268 -12 0 -1 -34 -3 -75 -5 -41 -2 -102 -7 -135 -9
-33 -3 -96 -8 -140 -11 -44 -3 -109 -8 -145 -11 -36 -3 -87 -7 -115 -9 -27 -2
-52 -4 -55 -5 -3 -1 -18 -3 -35 -5 -16 -1 -70 -6 -120 -11 -49 -4 -105 -8
-122 -8 -18 0 -33 -3 -33 -7 0 -4 -15 -7 -32 -7 -31 1 -143 -9 -143 -13 0 0
-16 -3 -35 -4 -66 -6 -135 -14 -135 -16 0 0 -16 -3 -35 -5 -85 -8 -116 -12
-132 -19 -9 -4 -21 -4 -25 -2 -5 3 -39 -1 -77 -9 -37 -8 -71 -12 -75 -10 -4 3
-37 -2 -75 -10 -37 -8 -72 -12 -77 -8 -5 3 -14 2 -20 -2 -7 -4 -28 -9 -48 -11
-20 -2 -48 -5 -62 -7 -14 -2 -31 -6 -37 -10 -7 -4 -16 -5 -20 -2 -5 3 -37 -2
-72 -10 -35 -8 -70 -12 -77 -10 -7 3 -15 1 -18 -5 -4 -5 -10 -7 -13 -5 -4 2
-37 -2 -72 -9 -35 -7 -67 -12 -70 -10 -3 2 -41 -5 -84 -15 -44 -11 -82 -17
-86 -15 -3 2 -31 -2 -61 -10 -30 -8 -73 -17 -96 -19 -23 -3 -63 -10 -88 -16
-26 -6 -51 -8 -56 -5 -5 4 -9 1 -9 -6 0 -6 -8 -9 -20 -6 -11 3 -20 1 -20 -5 0
-5 -4 -7 -9 -4 -4 3 -34 -1 -66 -9 -31 -8 -60 -13 -65 -10 -5 3 -11 1 -15 -5
-4 -6 -10 -8 -14 -6 -4 3 -32 -1 -61 -9 -30 -8 -56 -12 -59 -10 -2 3 -10 0
-18 -7 -7 -6 -16 -8 -19 -5 -3 3 -35 -3 -70 -13 -36 -11 -72 -16 -80 -13 -8 3
-14 0 -14 -7 0 -6 -4 -9 -9 -6 -5 3 -32 -1 -60 -10 -28 -8 -56 -12 -61 -9 -6
3 -10 1 -10 -5 0 -7 -8 -9 -20 -5 -12 4 -20 2 -20 -5 0 -6 -4 -9 -8 -6 -5 3
-31 -2 -57 -10 -27 -8 -65 -16 -85 -19 -19 -2 -57 -11 -84 -19 -27 -8 -53 -13
-58 -10 -4 3 -8 0 -8 -6 0 -7 -7 -10 -15 -7 -8 4 -17 2 -20 -4 -4 -5 -10 -7
-14 -5 -4 3 -42 -6 -84 -19 -41 -12 -77 -21 -79 -19 -2 2 -26 -3 -52 -11 -27
-8 -52 -12 -57 -9 -5 3 -9 0 -9 -6 0 -7 -7 -10 -15 -6 -8 3 -15 1 -15 -5 0 -6
-4 -8 -9 -5 -5 3 -34 -3 -64 -13 -31 -11 -71 -22 -89 -25 -18 -3 -61 -14 -95
-25 -35 -11 -63 -17 -63 -14 0 3 -7 0 -15 -7 -8 -7 -15 -10 -15 -7 0 3 -28 -4
-62 -15 -35 -11 -74 -22 -88 -24 -14 -2 -51 -12 -84 -23 -32 -12 -62 -18 -67
-15 -5 3 -9 0 -9 -5 0 -6 -8 -11 -18 -11 -10 0 -51 -11 -90 -24 -40 -14 -72
-23 -72 -21 0 3 -37 -9 -81 -25 -45 -16 -86 -27 -90 -24 -5 3 -9 0 -9 -7 0 -7
-3 -10 -6 -6 -4 3 -29 -3 -57 -13 -27 -11 -54 -17 -59 -14 -4 3 -8 0 -8 -6 0
-7 -7 -10 -15 -6 -8 3 -15 0 -15 -6 0 -6 -3 -9 -6 -5 -3 3 -36 -6 -72 -20 -37
-13 -68 -24 -69 -24 -2 1 -4 1 -5 0 -2 0 -10 -2 -18 -4 -23 -5 -167 -55 -249
-86 -40 -16 -77 -26 -82 -23 -5 3 -9 1 -9 -4 0 -5 -6 -9 -12 -9 -7 -1 -44 -13
-83 -28 -38 -15 -80 -29 -91 -31 -12 -2 -47 -15 -78 -29 -32 -14 -62 -23 -67
-20 -5 4 -9 1 -9 -6 0 -7 -2 -10 -6 -7 -3 3 -41 -9 -85 -28 -43 -18 -79 -31
-79 -29 0 2 -32 -10 -71 -26 -40 -17 -80 -32 -90 -34 -11 -2 -46 -16 -80 -31
-33 -15 -67 -27 -75 -27 -8 0 -14 -5 -14 -10 0 -6 -3 -8 -6 -5 -3 4 -39 -9
-80 -28 -41 -19 -81 -34 -87 -34 -7 0 -45 -16 -86 -35 -40 -19 -78 -35 -84
-35 -7 0 -41 -14 -77 -31 -36 -17 -72 -32 -80 -34 -8 -2 -40 -15 -71 -29 -31
-13 -60 -22 -63 -19 -3 4 -6 1 -6 -6 0 -7 -4 -9 -10 -6 -5 3 -10 1 -10 -5 0
-6 -4 -8 -10 -5 -5 3 -10 1 -10 -4 0 -6 -4 -10 -8 -9 -8 3 -44 -13 -227 -97
-44 -21 -84 -38 -90 -39 -5 -1 -44 -18 -85 -38 -124 -60 -214 -100 -224 -98
-5 1 -12 -2 -15 -7 -5 -7 -158 -86 -171 -88 -3 -1 -42 -20 -87 -43 -46 -23
-83 -39 -83 -35 0 5 -4 4 -8 -2 -4 -5 -95 -54 -202 -108 -263 -133 -388 -198
-432 -225 -21 -13 -38 -20 -38 -15 0 4 -4 4 -8 -2 -7 -10 -26 -21 -152 -88
-41 -21 -100 -54 -131 -73 -31 -19 -59 -34 -63 -34 -3 0 -35 -18 -71 -40 -36
-22 -71 -41 -78 -43 -7 -1 -14 -4 -17 -7 -3 -3 -16 -12 -30 -19 -51 -30 -177
-104 -225 -134 -27 -17 -63 -37 -80 -45 -16 -9 -49 -28 -71 -43 -23 -16 -61
-39 -85 -52 -24 -13 -69 -39 -99 -59 -96 -62 -205 -127 -215 -128 -5 -1 -14
-8 -18 -16 -4 -8 -12 -14 -18 -14 -5 0 -49 -26 -97 -58 -48 -33 -92 -61 -97
-63 -6 -2 -35 -21 -65 -41 -190 -131 -399 -265 -404 -260 -3 3 -6 0 -6 -6 0
-5 -26 -28 -57 -49 -32 -21 -100 -68 -151 -103 -51 -36 -100 -70 -110 -75 -9
-6 -53 -37 -97 -70 -44 -33 -83 -60 -86 -60 -3 0 -12 -7 -21 -15 -8 -8 -77
-60 -152 -115 -214 -157 -289 -214 -585 -447 -47 -38 -110 -86 -139 -108 -29
-23 -74 -60 -101 -83 -80 -69 -184 -152 -187 -150 -2 1 -27 -20 -56 -48 -29
-27 -84 -75 -123 -107 -38 -31 -121 -102 -184 -157 -62 -55 -141 -125 -176
-155 -160 -140 -239 -212 -360 -324 -150 -140 -372 -351 -430 -410 -22 -23
-76 -75 -120 -117 -66 -64 -443 -451 -550 -565 -255 -273 -500 -543 -530 -584
-11 -15 -34 -42 -52 -61 -17 -19 -77 -88 -133 -154 -56 -66 -121 -142 -145
-170 -47 -55 -153 -184 -200 -244 -16 -21 -59 -74 -95 -118 -36 -44 -101 -126
-145 -183 -44 -56 -85 -108 -92 -115 -6 -6 -31 -39 -55 -72 -24 -33 -99 -134
-167 -224 -67 -90 -131 -175 -141 -189 -47 -63 -124 -171 -171 -239 -28 -40
-57 -81 -65 -90 -7 -9 -36 -50 -64 -91 -27 -41 -76 -113 -107 -159 -69 -99
-132 -193 -191 -285 -24 -36 -48 -66 -53 -66 -6 0 -8 -4 -5 -9 4 -5 -4 -22
-17 -38 -13 -15 -30 -39 -37 -53 -16 -31 -124 -199 -142 -221 -7 -9 -14 -22
-16 -30 -2 -7 -7 -16 -11 -19 -4 -3 -25 -34 -45 -70 -21 -36 -48 -78 -61 -95
-12 -16 -35 -55 -50 -85 -15 -30 -35 -64 -45 -75 -9 -11 -34 -51 -55 -90 -20
-38 -41 -72 -45 -75 -4 -3 -21 -33 -38 -67 -17 -33 -43 -78 -58 -100 -14 -21
-40 -65 -56 -98 -17 -33 -34 -62 -38 -65 -4 -3 -24 -39 -45 -80 -21 -41 -41
-77 -45 -80 -4 -3 -24 -39 -45 -80 -21 -41 -41 -77 -46 -78 -5 -2 -7 -8 -3
-13 3 -5 1 -9 -4 -9 -4 0 -23 -34 -41 -75 -18 -41 -37 -75 -41 -75 -4 0 -24
-37 -44 -81 -21 -45 -42 -86 -47 -93 -5 -6 -39 -69 -75 -141 -37 -71 -70 -131
-75 -133 -4 -2 -6 -9 -3 -16 3 -8 -2 -20 -10 -28 -8 -8 -27 -44 -41 -79 -15
-35 -32 -67 -39 -71 -6 -4 -7 -8 -1 -8 6 0 6 -3 -1 -8 -5 -4 -23 -37 -39 -74
-15 -38 -32 -68 -37 -68 -4 0 -7 -3 -6 -7 0 -5 -10 -33 -24 -63 -14 -30 -28
-65 -32 -77 -4 -13 -12 -23 -17 -23 -5 0 -8 -3 -7 -7 1 -9 -19 -57 -77 -178
-23 -49 -46 -100 -49 -112 -4 -13 -12 -23 -17 -23 -6 0 -7 -5 -3 -11 3 -6 2
-14 -3 -18 -5 -3 -22 -37 -37 -76 -15 -38 -31 -72 -35 -75 -4 -3 -18 -33 -30
-67 -13 -35 -27 -63 -32 -63 -5 0 -6 -7 -3 -15 4 -8 1 -15 -5 -15 -6 0 -10 -3
-9 -7 1 -5 -6 -25 -15 -47 -9 -21 -17 -40 -17 -43 0 -2 -7 -20 -17 -41 -9 -20
-17 -39 -17 -42 -1 -3 -7 -14 -13 -25 -5 -11 -16 -37 -22 -57 -7 -21 -17 -38
-22 -38 -6 0 -7 -5 -3 -11 3 -6 2 -14 -3 -18 -6 -3 -20 -37 -33 -76 -12 -38
-28 -79 -35 -90 -6 -11 -18 -38 -25 -60 -7 -22 -20 -56 -28 -75 -9 -19 -16
-37 -17 -40 -1 -3 -9 -21 -18 -41 -8 -19 -19 -47 -22 -62 -4 -15 -11 -27 -17
-27 -5 0 -6 -5 -3 -10 4 -6 2 -16 -3 -23 -5 -7 -18 -38 -28 -69 -10 -32 -22
-58 -26 -58 -5 0 -6 -5 -2 -11 3 -6 2 -14 -3 -18 -5 -3 -19 -41 -33 -83 -13
-43 -28 -78 -33 -78 -5 0 -7 -7 -4 -15 4 -8 2 -17 -2 -19 -5 -3 -14 -26 -21
-51 -7 -25 -16 -45 -20 -45 -5 0 -6 -9 -3 -20 3 -12 0 -20 -8 -20 -7 0 -9 -3
-6 -7 4 -3 3 -11 -2 -17 -5 -6 -17 -40 -27 -76 -10 -36 -21 -67 -25 -70 -3 -3
-17 -41 -29 -85 -12 -44 -26 -84 -30 -90 -4 -5 -16 -39 -26 -75 -10 -36 -21
-68 -26 -71 -5 -3 -8 -10 -7 -15 1 -5 -3 -21 -9 -35 -6 -15 -14 -43 -17 -63
-4 -20 -11 -36 -17 -36 -5 0 -6 -5 -3 -10 4 -6 3 -16 -3 -23 -5 -7 -15 -34
-22 -62 -7 -27 -16 -54 -21 -59 -4 -5 -5 -15 -2 -22 3 -8 1 -14 -5 -14 -5 0
-15 -27 -22 -60 -7 -33 -16 -60 -20 -60 -5 0 -6 -9 -3 -20 3 -11 1 -20 -5 -20
-5 0 -15 -29 -22 -65 -7 -36 -16 -65 -20 -65 -5 0 -6 -9 -3 -20 3 -11 1 -20
-5 -20 -5 0 -15 -29 -22 -65 -7 -36 -16 -65 -20 -65 -5 0 -6 -9 -3 -20 3 -11
1 -20 -4 -20 -5 0 -15 -29 -22 -65 -7 -36 -18 -65 -23 -65 -6 0 -7 -7 -4 -16
4 -9 2 -22 -3 -28 -4 -6 -14 -41 -22 -78 -7 -38 -16 -68 -19 -68 -4 0 -12 -31
-19 -70 -7 -38 -17 -73 -22 -76 -5 -3 -7 -10 -3 -15 3 -5 1 -15 -4 -22 -5 -7
-13 -33 -16 -59 -4 -26 -11 -50 -16 -53 -4 -3 -6 -14 -3 -25 3 -11 1 -20 -4
-20 -5 0 -15 -36 -22 -80 -8 -44 -17 -80 -20 -80 -4 0 -13 -36 -20 -80 -8 -44
-17 -83 -22 -85 -4 -3 -11 -30 -14 -60 -4 -31 -11 -58 -16 -60 -4 -3 -6 -12
-2 -20 3 -9 1 -21 -5 -28 -6 -6 -13 -38 -17 -69 -4 -32 -12 -58 -17 -58 -5 0
-6 -9 -3 -20 4 -12 2 -26 -3 -33 -6 -7 -13 -38 -17 -69 -4 -32 -11 -58 -15
-58 -4 0 -11 -32 -15 -70 -4 -39 -11 -72 -15 -75 -5 -3 -6 -14 -3 -25 3 -11 1
-26 -5 -33 -5 -6 -13 -40 -17 -75 -4 -34 -11 -64 -15 -67 -4 -3 -11 -36 -15
-75 -4 -38 -11 -70 -16 -70 -5 0 -9 -12 -9 -27 1 -47 -12 -133 -19 -128 -4 2
-8 -10 -8 -28 -1 -52 -15 -137 -23 -137 -3 0 -7 -15 -7 -32 -2 -63 -16 -148
-24 -148 -5 0 -8 -3 -7 -7 4 -20 -15 -183 -22 -183 -5 0 -11 -28 -14 -62 -3
-35 -8 -76 -10 -93 -3 -16 -8 -63 -12 -102 -4 -40 -11 -73 -15 -73 -5 0 -9
-30 -9 -66 0 -36 -4 -63 -9 -60 -5 3 -12 -31 -15 -77 -9 -118 -11 -145 -21
-207 -5 -30 -8 -61 -6 -68 1 -8 -3 -37 -9 -65 -6 -29 -13 -84 -15 -122 -3 -39
-10 -86 -15 -105 -6 -19 -10 -72 -10 -117 0 -46 -4 -83 -9 -83 -5 0 -10 -42
-10 -92 -1 -51 -6 -122 -12 -158 -6 -36 -14 -130 -20 -210 -35 -536 -53 -851
-55 -955 -7 -368 -13 -544 -19 -568 -5 -17 -3 -27 4 -27 7 0 9 -9 6 -23 -8
-29 -12 -467 -5 -467 3 0 5 -110 5 -245 0 -135 3 -245 6 -245 4 0 6 -46 6
-102 0 -57 3 -155 7 -218 4 -63 9 -149 11 -190 5 -97 13 -215 20 -315 4 -44 8
-105 9 -136 2 -31 5 -60 8 -65 2 -5 4 -39 4 -76 -1 -38 2 -68 5 -68 4 0 6 -17
7 -37 0 -21 3 -65 6 -98 19 -189 29 -299 30 -332 1 -18 4 -33 7 -33 5 0 7 -28
12 -137 1 -18 5 -33 8 -33 5 0 10 -58 12 -137 0 -18 5 -33 10 -33 5 0 7 -8 4
-19 -2 -10 2 -51 9 -91 8 -39 12 -75 10 -79 -3 -4 2 -37 10 -75 8 -37 12 -71
10 -75 -3 -4 2 -37 10 -74 7 -36 11 -73 8 -82 -4 -8 -1 -15 6 -15 7 0 10 -6 7
-13 -3 -8 1 -44 9 -81 8 -37 13 -70 13 -74 -1 -4 -1 -9 0 -12 4 -10 14 -86 15
-112 0 -16 4 -28 8 -28 3 0 6 -15 6 -32 0 -18 7 -62 16 -97 8 -36 13 -67 11
-71 -2 -4 3 -33 11 -64 8 -32 13 -61 10 -64 -3 -3 -1 -11 6 -19 6 -7 8 -16 5
-19 -3 -3 1 -32 9 -65 8 -34 12 -65 8 -70 -3 -5 0 -9 6 -9 7 0 10 -6 7 -14 -3
-8 3 -47 13 -87 11 -40 17 -75 15 -79 -2 -3 5 -37 16 -75 10 -39 17 -76 14
-82 -2 -7 0 -13 6 -13 6 0 9 -6 6 -14 -3 -8 1 -36 9 -62 8 -27 12 -54 10 -61
-3 -7 -1 -13 5 -13 6 0 9 -6 6 -14 -3 -8 3 -43 14 -78 10 -34 17 -69 14 -75
-2 -7 0 -13 6 -13 6 0 9 -6 6 -12 -2 -7 4 -42 14 -77 10 -35 16 -67 14 -72 -3
-4 -1 -10 5 -14 6 -4 8 -10 6 -14 -3 -4 3 -36 14 -70 10 -35 16 -69 13 -77 -3
-8 0 -14 7 -14 6 0 9 -4 6 -9 -3 -5 1 -28 9 -52 9 -24 13 -49 11 -56 -3 -7 -1
-13 5 -13 6 0 9 -7 5 -15 -3 -8 -1 -15 5 -15 6 0 9 -6 7 -12 -3 -7 3 -40 13
-72 10 -33 16 -63 13 -68 -3 -4 -1 -8 5 -8 5 0 9 -8 9 -17 -1 -10 7 -45 17
-78 10 -33 19 -70 20 -82 2 -12 11 -45 20 -72 9 -27 17 -59 18 -70 1 -12 5
-21 10 -21 5 0 7 -6 4 -12 -2 -7 4 -37 14 -67 10 -29 16 -57 13 -62 -3 -5 0
-9 6 -9 7 0 10 -6 7 -12 -2 -7 9 -50 24 -95 15 -46 26 -83 24 -83 -2 0 7 -32
20 -71 14 -39 22 -75 19 -80 -3 -5 0 -9 6 -9 6 0 9 -4 6 -8 -3 -5 6 -38 19
-75 14 -37 27 -77 29 -91 2 -13 16 -56 30 -95 14 -39 23 -71 21 -71 -3 0 6
-30 20 -66 14 -36 23 -70 20 -74 -3 -5 0 -10 6 -12 6 -2 13 -15 14 -28 2 -14
12 -49 24 -78 11 -28 23 -64 26 -80 2 -15 16 -55 30 -89 14 -35 25 -69 25 -76
0 -8 13 -47 30 -87 16 -40 27 -76 24 -81 -3 -5 0 -9 7 -9 7 0 10 -3 7 -6 -4
-3 7 -37 23 -76 16 -39 29 -76 29 -82 0 -6 16 -49 35 -95 19 -45 35 -89 35
-97 0 -8 6 -27 14 -42 8 -15 16 -36 18 -47 1 -11 6 -23 11 -26 4 -3 10 -16 12
-30 3 -13 18 -55 34 -94 67 -162 80 -198 75 -206 -3 -5 0 -9 6 -9 6 0 8 -4 5
-10 -3 -5 -1 -10 6 -10 7 0 10 -3 7 -6 -4 -3 9 -38 27 -79 19 -40 31 -76 28
-79 -4 -3 0 -6 7 -6 7 0 11 -3 8 -6 -4 -3 11 -44 32 -90 22 -46 39 -87 38 -90
-1 -8 104 -251 179 -413 20 -44 35 -82 35 -85 -1 -3 18 -47 43 -96 25 -50 43
-90 40 -90 -2 0 11 -29 31 -65 20 -36 37 -71 38 -78 2 -13 63 -142 118 -250
16 -31 27 -57 23 -57 -3 0 -1 -6 5 -13 6 -6 75 -140 154 -297 145 -289 233
-458 268 -517 11 -18 16 -33 11 -33 -4 0 -2 -4 6 -9 8 -5 16 -15 17 -23 1 -7
25 -51 53 -97 28 -46 51 -88 51 -93 0 -5 18 -37 40 -72 22 -35 40 -67 40 -71
0 -4 18 -36 40 -71 22 -35 41 -69 42 -76 2 -7 8 -18 13 -25 6 -6 29 -45 53
-85 145 -246 295 -493 321 -532 17 -24 31 -47 31 -50 0 -4 26 -46 57 -94 32
-48 60 -91 62 -97 2 -5 30 -49 63 -97 32 -48 58 -90 58 -93 0 -3 18 -30 40
-59 22 -29 40 -55 40 -59 0 -6 21 -37 164 -244 39 -57 76 -111 81 -120 6 -10
55 -81 110 -158 55 -77 105 -147 110 -157 11 -19 63 -89 289 -391 87 -116 171
-226 185 -244 14 -17 42 -53 61 -79 19 -25 51 -66 70 -89 54 -65 170 -211 216
-270 22 -29 56 -71 75 -93 18 -22 72 -86 119 -143 102 -123 491 -570 569 -654
31 -33 78 -85 105 -115 269 -301 1045 -1085 1169 -1180 15 -12 27 -28 27 -36
0 -8 4 -13 9 -12 5 2 67 -51 138 -117 165 -153 284 -260 330 -296 20 -16 41
-35 47 -42 6 -7 42 -40 81 -73 38 -32 76 -66 85 -75 8 -8 35 -31 60 -51 25
-20 56 -46 70 -59 14 -13 62 -53 105 -88 44 -35 91 -74 105 -87 14 -13 48 -41
75 -63 76 -60 187 -150 211 -170 12 -9 53 -42 90 -71 38 -30 78 -62 89 -72 26
-22 161 -125 372 -283 44 -33 93 -70 109 -82 94 -71 188 -138 248 -179 38 -25
75 -52 83 -59 7 -7 45 -35 85 -61 40 -26 75 -51 78 -55 3 -4 41 -31 85 -60 44
-28 82 -55 85 -59 3 -4 30 -22 60 -41 89 -54 244 -161 252 -173 4 -6 8 -7 8
-3 0 4 6 3 13 -3 18 -15 206 -138 250 -162 20 -12 37 -26 37 -30 0 -5 4 -7 9
-4 5 4 11 2 13 -2 1 -5 37 -28 78 -52 41 -24 80 -49 85 -55 6 -6 42 -28 80
-49 39 -21 72 -42 75 -46 3 -4 40 -26 83 -49 42 -24 77 -47 77 -52 0 -6 4 -8
9 -5 5 4 11 2 13 -3 1 -5 32 -23 68 -41 36 -18 79 -43 95 -55 17 -13 57 -37
90 -54 73 -39 125 -68 230 -131 44 -26 98 -56 120 -66 22 -10 45 -22 50 -27
13 -12 150 -86 245 -133 41 -20 77 -40 80 -44 3 -5 43 -27 90 -50 124 -60 174
-87 186 -98 7 -6 15 -8 18 -5 3 4 6 1 6 -5 0 -7 3 -11 8 -10 10 3 305 -144
314 -156 4 -6 8 -7 8 -2 0 4 11 1 23 -7 13 -9 53 -28 88 -42 35 -15 66 -30 69
-34 3 -4 35 -20 73 -36 37 -15 67 -32 67 -36 0 -5 7 -6 15 -3 8 4 15 1 15 -6
0 -6 5 -8 10 -5 6 3 10 3 10 -2 0 -4 29 -19 65 -32 36 -14 65 -29 65 -33 0 -4
3 -7 8 -6 4 1 27 -8 52 -19 25 -11 62 -26 83 -34 20 -7 37 -16 37 -20 0 -4 34
-19 75 -34 42 -16 78 -32 81 -37 3 -4 10 -6 15 -3 5 4 9 2 9 -3 0 -4 29 -19
65 -31 36 -13 65 -28 65 -33 0 -6 7 -8 15 -4 8 3 15 2 15 -2 0 -4 25 -16 55
-27 30 -10 55 -22 55 -26 0 -5 7 -6 15 -3 8 4 15 1 15 -5 0 -6 3 -10 8 -9 4 1
24 -6 45 -15 22 -9 56 -22 78 -28 21 -7 39 -17 39 -22 0 -6 3 -7 7 -4 3 4 11
3 17 -2 6 -4 35 -16 64 -26 28 -11 52 -22 52 -27 0 -4 7 -5 15 -2 8 4 15 2 15
-3 0 -5 34 -20 75 -33 41 -13 75 -27 75 -31 0 -5 7 -6 15 -3 8 4 15 2 15 -4 0
-6 14 -14 31 -17 18 -4 48 -14 68 -23 20 -9 38 -16 41 -17 3 -1 17 -6 31 -12
14 -6 44 -17 67 -24 23 -7 42 -16 42 -21 0 -5 5 -6 11 -2 6 3 14 2 18 -2 3 -5
33 -18 66 -28 33 -10 78 -26 100 -36 22 -10 60 -23 85 -30 25 -7 63 -20 86
-30 22 -10 61 -24 87 -31 26 -6 47 -15 47 -20 0 -5 6 -6 14 -3 8 3 17 1 20 -4
3 -5 37 -18 76 -28 38 -10 70 -22 70 -27 0 -4 4 -6 9 -3 5 3 21 -1 37 -8 15
-8 44 -18 66 -21 21 -4 38 -11 38 -16 0 -4 7 -6 15 -3 8 4 15 2 15 -3 0 -6 26
-16 58 -23 31 -6 75 -20 97 -30 22 -10 66 -24 98 -30 31 -7 57 -17 57 -23 0
-5 7 -7 15 -4 8 4 17 2 19 -2 3 -4 33 -14 66 -21 33 -7 60 -17 60 -22 0 -5 9
-7 19 -3 11 3 22 2 25 -3 3 -5 33 -15 66 -22 33 -7 60 -16 60 -21 0 -4 8 -8
18 -8 22 1 132 -28 153 -40 8 -5 42 -14 75 -21 32 -7 64 -16 70 -21 6 -5 14
-6 17 -2 4 3 12 1 19 -4 7 -6 43 -16 81 -24 37 -7 67 -16 67 -20 0 -4 8 -8 18
-8 36 -1 132 -25 132 -33 0 -5 9 -7 19 -3 11 3 22 2 25 -4 3 -5 29 -12 56 -16
28 -4 50 -11 50 -16 0 -4 7 -6 15 -3 8 4 21 2 28 -3 6 -6 45 -15 84 -22 40 -7
75 -16 78 -21 3 -4 29 -11 60 -15 30 -3 57 -10 60 -15 3 -5 12 -7 20 -3 9 3
21 1 28 -5 7 -6 36 -14 65 -18 29 -4 55 -11 58 -15 3 -5 16 -6 30 -3 13 4 24
2 24 -4 0 -5 27 -13 60 -17 33 -4 60 -11 60 -16 0 -4 12 -8 28 -8 34 1 140
-19 167 -31 11 -5 45 -12 75 -16 30 -3 60 -9 65 -13 6 -3 19 -7 30 -7 31 -3
98 -15 115 -21 8 -3 26 -7 40 -9 55 -7 166 -29 175 -35 6 -4 45 -10 88 -14 42
-4 77 -11 77 -15 0 -4 37 -11 83 -15 45 -4 87 -10 92 -15 6 -4 33 -10 60 -13
28 -3 66 -8 85 -11 19 -3 59 -8 88 -12 28 -3 52 -9 52 -14 0 -4 47 -11 105
-15 58 -4 108 -11 111 -16 3 -5 30 -9 60 -9 30 0 54 -4 54 -9 0 -5 37 -11 83
-15 45 -3 96 -8 112 -10 154 -21 294 -38 455 -55 52 -5 118 -14 145 -19 28 -6
86 -11 130 -11 43 -1 82 -5 85 -10 3 -4 79 -11 170 -15 90 -4 167 -11 170 -15
3 -5 109 -14 235 -20 127 -7 282 -16 345 -22 63 -6 212 -12 330 -15 118 -2
257 -8 308 -12 52 -4 92 -4 92 1 0 5 23 5 53 1 57 -8 957 -12 957 -4 0 3 76 5
170 5 93 0 170 3 170 6 0 3 44 6 98 6 53 0 149 3 212 7 63 4 149 9 190 12 165
10 219 13 315 20 55 5 119 8 143 8 23 1 42 4 42 8 0 4 15 6 33 6 17 -1 75 3
127 7 52 5 112 9 133 9 20 0 37 3 37 7 0 4 15 7 33 7 30 -1 149 9 155 13 2 2
7 2 127 13 39 3 97 10 129 16 32 5 62 8 65 5 4 -2 40 3 80 11 41 7 78 11 82 8
5 -3 14 -2 21 2 12 8 87 17 131 17 15 0 27 3 27 6 0 5 41 10 123 15 15 0 27 4
27 8 0 4 12 6 28 6 15 0 53 5 84 11 32 7 62 10 67 7 5 -4 12 -2 16 4 4 6 10 8
15 5 4 -3 38 2 75 10 37 9 69 14 72 12 2 -3 31 1 64 9 34 8 64 12 69 9 5 -3
12 0 15 6 4 5 13 8 19 6 7 -3 41 1 75 9 34 8 66 12 71 9 6 -4 10 -1 10 5 0 7
6 10 13 7 8 -3 42 1 76 9 34 8 66 12 71 9 6 -4 10 -1 10 5 0 7 6 10 14 7 8 -3
39 1 70 9 31 8 61 12 66 9 6 -3 10 -1 10 5 0 7 6 10 14 7 8 -3 38 1 68 9 29 8
71 16 93 19 22 3 64 12 94 20 30 8 58 12 62 9 4 -2 10 0 14 6 4 6 10 8 14 5 5
-2 39 4 77 15 37 10 71 17 74 15 3 -2 44 7 90 20 46 13 87 22 90 20 4 -2 36 5
71 15 35 11 80 22 99 24 19 3 57 12 85 20 27 8 51 13 54 11 2 -3 10 0 18 6 7
6 13 9 13 6 0 -3 30 3 66 13 37 11 71 17 75 14 5 -3 9 -1 9 5 0 5 8 9 18 9 9
-1 41 6 71 15 29 9 57 14 62 11 5 -3 9 0 9 6 0 7 6 10 13 7 6 -2 43 7 80 19
38 13 72 23 75 23 4 -1 9 0 12 1 3 1 12 3 21 5 9 1 43 11 75 20 33 9 68 18 79
20 11 1 42 10 68 19 27 9 53 13 59 10 7 -4 8 -2 4 4 -5 8 0 12 13 12 28 0 28
0 90 21 29 10 57 16 62 13 5 -3 9 0 9 6 0 7 7 10 15 6 8 -3 15 0 15 6 0 6 3 9
6 6 3 -4 37 4 75 17 38 13 69 21 69 18 0 -3 7 0 15 7 8 7 15 10 15 6 0 -3 37
8 82 24 45 16 83 28 85 26 3 -2 32 7 65 20 33 13 65 21 69 18 5 -3 9 0 9 5 0
6 8 11 17 11 17 0 117 32 242 76 35 13 68 21 72 18 5 -3 9 0 9 5 0 6 9 11 19
11 11 0 41 9 68 21 26 11 56 21 66 22 9 1 17 4 17 7 0 4 6 7 13 7 6 0 53 15
102 33 50 18 110 40 135 49 25 9 50 16 55 16 6 0 13 3 16 8 3 4 16 9 28 12 21
4 110 37 245 91 32 13 62 21 67 18 5 -3 9 0 9 6 0 6 5 8 10 5 6 -3 10 -1 10 6
0 7 3 10 6 6 3 -3 35 8 71 24 36 16 69 29 75 29 5 0 46 16 91 36 45 20 90 38
101 40 10 2 47 17 82 33 34 16 65 27 68 23 3 -3 6 0 6 6 0 7 3 11 8 10 7 -3
83 28 255 104 48 21 92 38 97 38 6 0 36 13 68 29 71 35 209 93 218 91 4 -1 10
2 13 7 3 5 44 27 91 48 47 21 123 55 170 77 47 22 86 39 87 39 1 0 69 33 151
74 81 40 155 75 163 77 7 2 16 5 19 8 3 3 95 51 205 106 247 125 407 209 440
230 14 9 25 12 25 8 0 -5 4 -4 8 1 4 6 23 18 42 29 35 18 188 102 335 184 44
24 85 44 92 45 7 0 15 7 17 14 3 8 10 11 16 8 5 -3 10 -1 10 4 0 6 4 11 10 11
5 0 33 15 62 33 29 19 79 48 111 65 31 17 74 43 94 57 21 14 41 25 44 25 4 0
50 27 102 60 53 33 98 60 101 60 3 0 39 21 80 47 179 115 221 141 226 140 3
-1 12 4 20 11 20 17 180 121 180 116 0 -2 33 20 74 49 72 50 209 141 244 162
9 6 45 29 78 52 34 23 64 39 68 36 3 -4 6 -2 6 4 0 9 117 94 224 163 44 28
231 164 272 197 23 18 44 33 48 33 3 0 46 30 95 67 50 38 124 93 166 123 42
30 81 60 88 65 7 6 30 24 51 40 21 17 74 57 117 90 42 33 112 87 156 120 43
33 92 72 108 87 17 16 33 28 36 28 3 0 17 10 30 21 23 21 83 70 229 189 222
180 671 567 805 694 22 21 78 72 125 114 264 238 996 958 1067 1050 14 17 32
32 41 32 8 0 12 3 9 7 -7 6 29 47 148 167 27 28 61 65 75 82 14 17 61 70 105
119 44 49 101 111 126 139 77 86 321 367 374 431 27 33 61 74 76 90 37 40 169
203 293 362 38 48 74 93 80 98 6 6 40 48 75 95 36 47 67 87 71 90 8 7 147 191
187 248 18 25 36 48 41 51 4 3 35 44 67 91 32 47 62 87 67 90 9 7 110 149 174
245 26 39 50 72 54 75 3 3 31 41 60 85 29 44 56 82 60 85 7 5 102 147 164 244
21 34 42 63 46 66 4 3 27 37 50 75 24 39 59 95 80 125 110 165 139 209 160
248 13 23 28 42 34 42 5 0 7 3 3 6 -3 3 -1 11 4 18 12 13 93 145 145 236 21
36 41 67 44 70 4 3 24 35 44 73 21 37 42 67 47 67 6 0 7 5 4 10 -3 6 -1 10 5
10 6 0 9 4 6 9 -4 5 -2 11 3 13 5 1 23 32 41 68 18 36 36 67 40 70 3 3 26 41
50 85 24 44 48 83 54 87 6 4 7 8 3 8 -4 0 -3 6 4 13 11 12 53 86 124 222 21
39 43 73 49 77 6 4 7 8 1 8 -6 0 -6 3 1 8 5 4 25 40 44 80 18 39 37 72 40 72
4 0 24 37 45 83 21 45 41 84 44 87 4 3 43 77 86 165 44 88 83 162 86 165 3 3
21 39 39 80 18 41 36 77 39 80 4 3 22 40 41 83 18 42 37 77 42 77 4 0 7 3 6 8
0 4 11 33 25 65 15 32 27 62 27 67 0 6 5 10 11 10 5 0 8 4 5 9 -4 5 -2 11 2
13 5 1 23 39 41 83 19 44 37 82 40 85 4 3 20 37 35 75 15 39 31 72 35 75 4 3
20 39 35 80 16 41 34 78 40 82 7 5 7 8 1 8 -6 0 -6 3 1 8 6 4 23 42 39 85 15
42 31 77 34 77 4 0 18 31 31 70 13 38 28 70 32 70 4 0 7 3 6 8 -1 4 5 23 14
42 8 19 20 52 27 73 7 20 17 37 21 37 5 0 7 7 4 15 -4 8 -2 15 3 15 6 0 16 19
22 42 7 24 20 59 29 78 8 19 16 37 17 40 1 3 7 19 14 35 6 17 19 50 28 75 10
25 20 47 24 50 3 3 17 38 30 78 12 39 27 72 32 72 4 0 5 4 2 10 -3 5 0 20 8
32 8 13 20 44 27 71 7 26 16 47 21 47 5 0 6 7 3 15 -4 8 -2 15 3 15 5 0 20 36
32 80 13 44 27 80 31 80 4 0 15 29 25 65 9 36 21 65 26 65 5 0 6 6 3 14 -3 8
-1 17 4 20 5 3 18 35 27 71 10 36 22 65 27 65 5 0 6 5 3 10 -4 6 -2 16 3 23 5
7 17 39 27 72 9 33 22 66 27 73 6 6 7 12 3 12 -4 0 -3 6 2 13 6 6 16 36 24 65
7 28 17 52 21 52 5 0 6 5 3 10 -4 6 -2 16 3 23 6 7 18 41 27 77 9 36 20 69 23
75 4 5 8 15 9 20 14 57 39 131 45 133 5 2 5 8 2 13 -3 6 -1 15 4 22 5 7 15 38
22 70 7 31 17 57 22 57 5 0 6 5 3 10 -4 6 -2 16 3 23 5 7 15 38 22 70 7 31 17
57 21 57 4 0 5 9 2 20 -3 11 -1 20 4 20 5 0 15 29 22 65 7 36 17 68 22 70 4 3
6 12 3 19 -3 8 -1 17 4 20 5 3 16 35 23 71 7 36 17 65 22 65 5 0 7 7 4 15 -4
8 -2 17 2 20 5 3 12 28 16 55 4 28 11 50 15 50 4 0 6 9 3 20 -3 11 -1 20 4 20
5 0 15 31 22 70 7 38 17 72 21 75 5 3 9 13 9 23 -1 19 18 98 28 122 3 8 5 21
4 28 -1 8 2 19 7 25 6 7 13 33 17 60 4 26 11 49 15 52 5 3 6 14 3 25 -3 11 -1
20 5 20 5 0 13 25 17 55 3 30 10 57 15 60 5 3 7 12 3 20 -3 9 -1 21 5 28 6 7
14 36 18 65 4 29 10 55 15 58 4 2 6 11 2 19 -3 9 -1 21 5 28 6 6 13 38 17 70
4 31 12 57 17 57 5 0 6 9 3 20 -4 12 -2 26 3 33 6 7 13 38 17 70 4 31 11 57
15 57 4 0 11 32 15 70 4 39 11 72 16 75 4 3 6 12 2 20 -3 9 -1 21 5 28 5 6 13
42 17 80 4 37 11 67 15 67 4 0 11 34 15 75 4 41 10 75 15 75 4 0 11 33 15 73
3 39 10 77 15 82 5 6 8 21 8 35 1 49 15 130 22 125 3 -2 7 10 8 28 2 65 15
147 23 147 5 0 8 3 7 8 -4 19 15 182 22 182 5 0 11 28 14 63 3 34 7 78 10 97
3 19 8 60 11 90 3 30 10 64 15 75 5 11 12 47 14 80 3 33 8 76 10 95 6 42 25
189 36 285 5 39 13 111 18 162 6 50 12 95 15 100 3 4 8 52 11 106 4 54 10 108
15 120 5 12 9 69 10 126 1 58 7 113 12 123 5 9 14 118 19 240 6 123 15 243 21
267 14 59 31 317 23 357 -3 17 0 107 6 200 7 93 14 252 17 354 7 290 6 1032
-2 1275 -4 121 -8 264 -9 317 0 54 -4 98 -7 98 -4 0 -6 41 -4 90 1 50 -2 90
-6 90 -4 0 -6 36 -5 81 1 44 -1 82 -4 84 -4 2 -6 38 -6 80 1 41 -2 75 -6 75
-4 0 -7 17 -6 38 1 36 -7 159 -18 272 -3 30 -6 85 -7 122 -1 38 -5 68 -8 68
-4 0 -7 17 -7 38 -1 43 -9 145 -12 152 -1 3 -4 19 -5 35 -12 137 -16 179 -25
224 -5 29 -8 57 -5 61 2 4 -2 42 -10 85 -8 42 -12 81 -9 87 3 5 -4 19 -16 30
-18 17 -21 29 -18 74 1 30 0 54 -3 54 -4 0 -7 21 -7 48 -1 71 -10 178 -22 244
-6 32 -9 62 -6 66 3 5 -1 36 -9 70 -8 34 -12 68 -9 76 3 8 0 17 -5 21 -6 3 -9
10 -7 14 3 4 -1 34 -9 66 -7 32 -11 64 -8 72 3 7 0 13 -7 13 -7 0 -10 7 -7 15
4 8 -1 37 -9 65 -8 28 -12 55 -9 60 3 6 2 10 -3 10 -5 0 -9 12 -10 28 0 15
-10 54 -21 86 -12 33 -19 62 -16 64 3 3 0 11 -6 19 -6 7 -9 13 -6 13 3 0 -3
25 -13 56 -11 31 -17 60 -14 65 3 5 1 9 -4 9 -5 0 -10 10 -10 23 0 12 -12 51
-26 86 -14 36 -26 71 -26 78 0 7 -12 43 -27 79 -14 37 -26 73 -26 81 0 7 -4
13 -9 13 -4 0 -7 3 -6 8 3 7 -26 82 -80 207 -14 33 -25 66 -25 72 0 7 -4 13
-7 13 -4 0 -13 15 -21 33 -52 130 -274 542 -335 622 -14 19 -24 35 -20 35 6 0
-186 278 -239 345 -215 274 -300 371 -495 565 -142 142 -252 243 -360 332 -36
29 -74 61 -85 70 -32 27 -185 140 -240 178 -27 19 -56 40 -63 47 -7 7 -45 31
-83 54 -38 23 -69 46 -69 51 0 5 -4 6 -10 3 -5 -3 -10 -2 -10 2 0 5 -33 26
-72 48 -40 21 -75 42 -78 45 -7 10 -163 95 -250 137 -41 19 -77 39 -80 42 -3
4 -35 20 -72 36 -38 16 -68 33 -68 38 0 4 -5 5 -11 1 -6 -3 -14 -2 -18 3 -3 5
-40 22 -81 38 -41 16 -77 31 -80 35 -3 4 -36 17 -75 30 -38 13 -73 27 -76 33
-4 5 -12 6 -18 3 -6 -4 -11 -3 -11 1 0 5 -31 17 -70 28 -38 11 -70 22 -70 25
0 4 -34 15 -75 25 -41 11 -75 22 -75 26 0 4 -8 8 -17 8 -25 0 -157 34 -163 42
-3 3 -36 12 -75 19 -38 7 -74 16 -80 20 -5 4 -48 13 -95 20 -47 7 -89 16 -95
20 -5 5 -41 11 -80 15 -38 4 -74 11 -80 15 -5 4 -37 10 -70 14 -105 11 -128
14 -195 25 -152 24 -870 48 -870 29 0 -4 -19 -6 -42 -6 -24 1 -88 -2 -143 -7
-55 -4 -113 -9 -130 -10 -16 -2 -32 -3 -35 -4 -5 -2 -69 -9 -126 -15 -17 -2
-36 -6 -43 -10 -6 -4 -15 -5 -19 -2 -5 3 -37 -2 -71 -10 -35 -8 -66 -12 -71
-9 -5 3 -11 1 -15 -5 -4 -6 -10 -8 -15 -5 -5 3 -34 -2 -65 -10 -32 -8 -61 -12
-66 -10 -4 3 -10 1 -14 -5 -4 -6 -10 -8 -14 -6 -4 3 -29 -1 -55 -9 -27 -8 -52
-12 -57 -9 -5 3 -9 0 -9 -6 0 -7 -7 -10 -15 -7 -8 4 -17 2 -20 -4 -4 -5 -10
-7 -15 -4 -4 2 -33 -4 -63 -14 -31 -11 -71 -22 -89 -25 -18 -3 -53 -12 -77
-20 -24 -9 -47 -14 -51 -11 -5 3 -10 0 -12 -6 -2 -6 -15 -13 -28 -14 -14 -2
-55 -15 -91 -29 -37 -14 -69 -22 -73 -19 -3 4 -6 2 -6 -3 0 -5 -8 -10 -17 -11
-10 -1 -44 -13 -76 -27 -32 -14 -63 -26 -70 -26 -7 0 -45 -16 -86 -35 -40 -19
-76 -35 -81 -35 -5 0 -83 -36 -174 -80 -91 -44 -169 -81 -173 -82 -5 -1 -36
-18 -70 -39 -34 -21 -85 -50 -114 -65 -29 -14 -75 -41 -103 -58 -28 -18 -96
-61 -151 -96 -111 -71 -290 -199 -447 -320 -245 -189 -634 -583 -862 -875 -22
-27 -43 -52 -46 -55 -4 -3 -31 -40 -61 -83 -30 -43 -73 -106 -97 -140 -23 -34
-49 -70 -57 -79 -8 -10 -11 -18 -7 -18 4 0 2 -4 -3 -8 -16 -11 -156 -243 -221
-367 -32 -60 -62 -112 -66 -113 -4 -2 -6 -8 -2 -13 3 -5 0 -9 -5 -9 -6 0 -11
-5 -11 -11 0 -5 -22 -56 -49 -112 -27 -56 -54 -119 -62 -139 -7 -21 -17 -38
-23 -38 -5 0 -6 -3 -3 -7 4 -3 3 -11 -1 -17 -5 -6 -19 -40 -32 -76 -13 -36
-28 -71 -33 -77 -5 -7 -6 -13 -2 -13 4 0 3 -6 -2 -12 -6 -7 -18 -38 -28 -68
-10 -30 -21 -60 -26 -65 -4 -6 -15 -41 -25 -78 -9 -37 -20 -67 -25 -67 -5 0
-6 -7 -3 -15 4 -8 2 -21 -4 -28 -5 -6 -15 -38 -22 -69 -7 -32 -17 -58 -22 -58
-5 0 -7 -9 -3 -19 3 -11 2 -22 -4 -25 -5 -3 -12 -29 -16 -56 -4 -28 -11 -50
-17 -50 -5 0 -7 -9 -3 -19 3 -11 2 -22 -4 -25 -5 -3 -12 -33 -16 -66 -4 -33
-11 -60 -16 -60 -4 0 -8 -12 -8 -27 0 -16 -4 -50 -10 -78 -14 -65 -20 -99 -27
-162 -3 -29 -9 -53 -13 -53 -4 0 -9 -28 -10 -62 -1 -34 -4 -65 -7 -69 -2 -5
-7 -45 -10 -91 -2 -46 -8 -94 -13 -108 -11 -31 -32 -385 -37 -650 -5 -193 -6
-385 -4 -385 1 0 3 -54 6 -120 5 -120 11 -230 14 -230 1 0 3 -16 5 -35 10
-104 17 -159 26 -198 5 -24 7 -48 4 -53 -4 -5 -2 -9 4 -9 5 0 9 -12 9 -27 0
-16 7 -52 16 -82 8 -29 13 -57 10 -62 -3 -5 0 -9 6 -9 7 0 10 -6 7 -12 -2 -7
4 -38 15 -68 10 -30 16 -60 14 -67 -3 -7 -1 -15 4 -18 5 -3 9 -18 9 -33 -1
-15 2 -65 5 -112 15 -232 18 -311 21 -645 1 -231 -3 -432 -11 -560 -8 -110
-18 -276 -24 -370 -5 -93 -14 -192 -19 -220 -5 -27 -10 -82 -10 -120 -1 -39
-5 -75 -10 -80 -5 -6 -12 -44 -14 -85 -3 -41 -10 -113 -16 -160 -18 -135 -21
-152 -27 -213 -3 -31 -9 -55 -14 -52 -4 3 -11 -38 -15 -90 -4 -52 -10 -95 -15
-95 -4 0 -11 -36 -14 -80 -4 -44 -11 -80 -16 -80 -4 0 -11 -34 -15 -75 -4 -41
-11 -75 -15 -75 -5 0 -9 -12 -9 -27 0 -36 -22 -157 -31 -163 -3 -3 -12 -41
-19 -85 -7 -44 -16 -84 -20 -90 -4 -5 -13 -41 -21 -80 -7 -38 -16 -74 -20 -80
-4 -5 -13 -40 -20 -77 -7 -38 -17 -68 -22 -68 -5 0 -8 -8 -7 -17 1 -10 -1 -25
-4 -33 -3 -8 -11 -40 -18 -70 -6 -30 -15 -59 -19 -65 -5 -5 -14 -38 -21 -72
-7 -35 -17 -63 -22 -63 -4 0 -5 -5 -2 -10 4 -6 2 -16 -3 -23 -5 -7 -15 -38
-22 -69 -7 -32 -17 -58 -22 -58 -5 0 -6 -5 -3 -10 4 -6 1 -17 -5 -25 -7 -8 -9
-15 -5 -15 4 0 3 -6 -2 -12 -6 -7 -16 -37 -23 -65 -6 -29 -17 -53 -22 -53 -6
0 -8 -7 -5 -15 4 -8 3 -16 -1 -19 -4 -2 -16 -36 -27 -75 -10 -39 -23 -71 -27
-71 -4 0 -5 -7 -2 -15 4 -8 2 -15 -3 -15 -5 0 -15 -22 -22 -50 -7 -27 -17 -50
-22 -50 -4 0 -6 -7 -3 -15 4 -8 1 -15 -6 -15 -7 0 -10 -6 -7 -14 3 -7 2 -17
-3 -22 -4 -5 -15 -34 -25 -64 -9 -30 -23 -64 -30 -75 -6 -11 -22 -50 -34 -87
-13 -38 -27 -68 -33 -68 -6 0 -8 -7 -4 -15 3 -8 2 -15 -3 -15 -4 0 -16 -27
-26 -60 -10 -33 -23 -60 -28 -60 -6 0 -7 -3 -4 -7 4 -3 3 -11 -2 -17 -5 -6
-21 -42 -35 -81 -15 -38 -30 -72 -35 -75 -4 -3 -23 -44 -41 -92 -18 -49 -37
-88 -41 -88 -5 0 -9 -5 -9 -12 0 -7 -31 -76 -70 -155 -38 -79 -70 -146 -70
-149 0 -2 -4 -10 -10 -17 -5 -7 -44 -79 -86 -162 -43 -82 -82 -153 -88 -157
-6 -5 -7 -8 -1 -8 6 0 5 -4 -1 -8 -6 -4 -30 -43 -53 -87 -23 -44 -61 -112 -84
-151 -23 -39 -55 -93 -71 -120 -16 -27 -50 -83 -76 -124 -26 -41 -56 -90 -66
-107 -10 -18 -22 -33 -27 -33 -4 0 -6 -4 -3 -9 4 -5 2 -11 -2 -13 -4 -1 -25
-31 -46 -65 -20 -35 -42 -63 -47 -63 -6 0 -8 -4 -5 -9 3 -5 -3 -19 -13 -32
-21 -27 -116 -165 -174 -254 -22 -33 -45 -64 -51 -70 -6 -5 -24 -30 -40 -55
-16 -25 -46 -65 -66 -90 -20 -25 -51 -66 -68 -92 -18 -25 -38 -52 -45 -60 -7
-7 -41 -51 -76 -98 -35 -47 -69 -89 -75 -95 -6 -5 -36 -41 -65 -80 -30 -38
-62 -77 -71 -85 -9 -8 -32 -35 -52 -60 -19 -25 -49 -60 -67 -79 -17 -18 -46
-52 -63 -75 -33 -41 -66 -77 -268 -295 -245 -264 -663 -667 -889 -856 -193
-162 -242 -202 -296 -245 -31 -25 -76 -61 -100 -80 -78 -64 -200 -155 -204
-152 -2 2 -7 -1 -10 -6 -8 -12 -178 -142 -187 -142 -3 0 -34 -22 -68 -48 -53
-42 -205 -148 -254 -177 -9 -6 -52 -34 -94 -62 -43 -29 -78 -49 -78 -45 0 4
-5 -1 -11 -10 -5 -10 -15 -18 -21 -18 -6 0 -25 -10 -42 -23 -32 -24 -264 -167
-271 -167 -2 0 -44 -25 -93 -55 -50 -30 -93 -55 -96 -55 -4 0 -24 -11 -46 -25
-75 -48 -595 -319 -611 -320 -3 0 -44 -19 -90 -42 -113 -57 -415 -193 -429
-193 -6 0 -39 -14 -73 -32 -34 -17 -75 -34 -92 -39 -16 -4 -61 -20 -100 -37
-104 -44 -187 -75 -202 -75 -7 0 -13 -5 -13 -10 0 -6 -3 -8 -6 -4 -3 3 -42
-10 -86 -29 -44 -19 -84 -32 -89 -28 -5 3 -9 1 -9 -3 0 -5 -8 -9 -17 -10 -10
-1 -40 -11 -66 -22 -27 -12 -53 -19 -58 -15 -5 3 -9 0 -9 -5 0 -6 -9 -11 -19
-11 -11 0 -40 -9 -66 -20 -26 -11 -51 -18 -56 -14 -5 3 -9 0 -9 -6 0 -7 -7
-10 -15 -6 -8 3 -15 0 -15 -6 0 -6 -3 -9 -6 -5 -4 3 -35 -5 -71 -18 -36 -14
-69 -22 -74 -19 -5 3 -9 0 -9 -6 0 -6 -4 -9 -9 -6 -5 3 -39 -5 -76 -19 -36
-14 -71 -23 -76 -20 -5 4 -9 1 -9 -5 0 -7 -6 -10 -12 -7 -7 2 -37 -4 -67 -14
-29 -10 -57 -16 -62 -13 -5 3 -9 0 -9 -6 0 -7 -6 -10 -12 -7 -7 2 -44 -7 -82
-19 -38 -13 -72 -21 -77 -19 -4 3 -10 1 -14 -5 -4 -6 -10 -8 -14 -6 -4 3 -36
-4 -70 -15 -35 -10 -67 -17 -72 -13 -5 3 -9 0 -9 -6 0 -7 -6 -10 -12 -7 -7 2
-41 -4 -76 -14 -35 -10 -70 -15 -78 -12 -8 3 -14 0 -14 -7 0 -6 -4 -9 -9 -6
-5 3 -32 -1 -60 -10 -28 -8 -56 -12 -61 -9 -6 3 -10 2 -10 -4 0 -5 -12 -9 -27
-9 -16 0 -48 -5 -72 -12 -24 -6 -60 -13 -80 -15 -20 -2 -64 -10 -98 -19 -34
-9 -66 -16 -70 -15 -4 1 -10 1 -13 0 -10 -4 -86 -14 -112 -15 -16 0 -28 -4
-28 -7 0 -4 -15 -7 -32 -7 -18 0 -54 -5 -80 -11 -26 -6 -54 -8 -62 -5 -9 3
-16 2 -16 -3 0 -6 -12 -10 -27 -10 -32 -1 -128 -10 -128 -13 0 -1 -16 -4 -35
-6 -72 -7 -125 -13 -125 -15 0 -1 -18 -3 -40 -5 -74 -5 -150 -12 -150 -14 0
-4 -205 -19 -470 -36 -49 -3 -152 -7 -228 -8 -75 -2 -139 -5 -142 -7 -2 -3
-31 -2 -65 1 -33 3 -60 3 -60 0 0 -8 -291 -4 -330 5 -19 4 -30 3 -30 -4 0 -6
-12 -8 -27 -6 -34 6 -442 32 -717 45 -110 6 -204 14 -210 20 -5 5 -52 10 -104
10 -59 0 -91 4 -87 10 4 6 -23 10 -74 10 -45 0 -81 4 -81 8 0 5 -26 10 -57 11
-32 1 -66 4 -77 7 -10 4 -35 8 -55 9 -100 10 -151 18 -151 26 0 5 -3 8 -7 7
-20 -4 -173 15 -173 22 0 4 -36 11 -80 15 -44 4 -80 11 -80 15 0 4 -31 11 -70
15 -38 4 -70 12 -70 17 0 6 -11 7 -26 4 -14 -4 -31 -3 -37 2 -7 5 -38 13 -69
16 -32 4 -60 11 -63 16 -3 5 -13 9 -23 8 -25 0 -135 23 -147 31 -5 4 -41 13
-80 21 -38 7 -74 16 -80 20 -5 4 -17 8 -25 8 -39 3 -120 26 -120 34 0 6 -7 7
-16 4 -9 -4 -22 -2 -28 2 -6 5 -39 15 -73 22 -35 7 -63 17 -63 22 0 5 -9 7
-19 3 -11 -3 -22 -2 -25 3 -3 5 -33 15 -66 22 -33 7 -60 17 -60 22 0 6 -7 8
-15 5 -8 -4 -17 -2 -19 2 -3 4 -33 14 -66 21 -33 7 -60 17 -60 22 0 5 -6 8
-12 7 -7 -1 -20 1 -28 4 -8 3 -42 14 -75 23 -33 9 -64 20 -70 24 -5 4 -38 16
-72 25 -35 10 -63 21 -63 26 0 5 -6 6 -14 3 -8 -3 -17 -1 -20 4 -3 5 -35 18
-71 27 -36 10 -65 22 -65 26 0 5 -7 6 -15 3 -8 -4 -15 -2 -15 3 0 5 -34 20
-75 33 -41 13 -75 28 -75 33 0 5 -7 7 -15 3 -8 -3 -15 -2 -15 3 0 4 -34 18
-75 31 -41 13 -75 27 -75 30 0 4 -31 18 -70 31 -38 13 -70 27 -70 32 0 4 -4 6
-9 2 -5 -3 -12 -1 -15 4 -3 5 -35 19 -70 32 -36 12 -62 27 -59 32 3 6 1 7 -6
3 -6 -4 -26 1 -44 12 -17 11 -53 27 -79 37 -27 10 -48 22 -48 26 0 5 -3 8 -7
7 -13 -2 -331 147 -343 161 -3 3 -75 42 -160 85 -85 44 -158 84 -162 90 -5 7
-8 7 -8 1 0 -6 -3 -6 -8 1 -4 6 -41 29 -82 51 -123 65 -245 135 -250 143 -3 4
-24 17 -48 29 -45 23 -187 111 -213 133 -9 7 -22 14 -30 16 -7 2 -16 7 -19 12
-3 4 -40 29 -82 55 -43 25 -78 51 -78 57 0 6 -3 9 -6 5 -3 -3 -11 -1 -18 4 -6
6 -39 29 -74 52 -173 116 -222 151 -222 156 0 4 -15 15 -32 25 -45 26 -395
291 -502 379 -223 186 -302 253 -311 264 -5 6 -26 25 -47 41 -111 87 -438 400
-676 646 -218 225 -543 589 -591 660 -8 11 -33 42 -55 67 -77 86 -322 407
-429 561 -25 37 -61 87 -79 111 -51 69 -129 186 -129 194 0 5 -7 12 -15 16 -8
4 -14 12 -14 17 0 4 -25 44 -55 88 -30 44 -55 83 -55 87 0 3 -20 35 -45 69
-25 35 -45 66 -45 69 0 4 -22 42 -50 85 -27 43 -50 84 -50 90 0 7 -4 12 -10
12 -5 0 -10 5 -10 11 0 6 -8 23 -19 37 -10 15 -38 63 -61 107 -23 44 -50 91
-60 105 -9 14 -32 54 -49 90 -18 36 -42 80 -53 98 -11 17 -16 32 -12 32 4 0
-1 7 -12 15 -10 8 -14 15 -9 15 7 0 6 3 0 8 -9 6 -169 317 -170 331 -1 3 -25
56 -54 116 -89 183 -175 376 -186 415 -4 14 -19 47 -32 74 -14 27 -26 57 -28
66 -2 10 -18 51 -35 90 -17 39 -33 79 -35 88 -2 10 -15 43 -29 76 -14 32 -23
62 -20 67 3 5 0 9 -7 9 -7 0 -10 3 -7 6 4 3 -7 37 -23 76 -16 39 -31 81 -33
92 -3 12 -16 50 -31 86 -14 36 -28 76 -30 90 -2 14 -16 54 -30 89 -13 35 -22
68 -19 72 3 5 0 9 -7 9 -7 0 -10 3 -6 6 3 3 -4 31 -15 62 -11 32 -22 69 -24
83 -2 15 -12 49 -23 76 -10 27 -22 65 -25 83 -3 19 -15 62 -26 95 -12 33 -23
71 -25 85 -1 14 -11 52 -21 85 -9 33 -18 69 -19 80 -2 11 -11 47 -21 80 -9 33
-18 69 -20 80 -1 11 -3 20 -4 20 -1 0 -3 9 -4 20 -2 11 -8 39 -15 63 -7 23 -9
47 -6 52 3 6 1 10 -5 10 -7 0 -10 6 -7 13 2 6 -4 43 -15 80 -10 38 -16 72 -13
78 4 5 1 9 -5 9 -7 0 -10 7 -6 15 3 8 1 27 -4 42 -6 15 -11 42 -13 58 -2 17
-7 36 -11 43 -4 7 -5 16 -2 20 3 5 -4 43 -15 86 -11 42 -17 80 -15 85 3 4 -2
34 -10 65 -8 32 -13 64 -10 72 3 7 1 16 -5 19 -5 4 -7 10 -4 15 3 4 -2 38 -10
75 -9 36 -14 69 -11 73 2 4 -2 39 -10 77 -8 38 -13 74 -10 81 2 6 0 29 -5 50
-5 22 -11 71 -14 109 -3 39 -10 95 -14 125 -5 30 -9 64 -9 75 0 41 -9 152 -13
161 -2 5 -4 39 -4 76 0 38 -3 68 -6 68 -4 0 -6 38 -5 85 1 47 -2 85 -5 85 -4
0 -7 44 -7 98 -1 53 -3 239 -6 412 -2 173 -1 356 4 405 4 50 5 93 1 97 -9 10
25 571 38 611 5 18 10 77 11 131 1 55 4 104 8 110 6 10 12 63 28 246 3 36 10
69 15 75 5 5 9 35 9 67 0 32 4 58 10 58 5 0 9 3 8 8 -4 16 15 188 22 197 4 6
11 45 15 87 4 43 10 80 15 83 4 2 11 38 15 80 4 41 10 77 15 80 4 3 11 36 15
75 4 38 11 70 16 70 5 0 8 10 8 23 -1 30 22 150 31 162 4 6 11 34 15 62 4 29
11 55 15 58 4 3 6 14 3 25 -3 11 -1 20 4 20 5 0 15 36 22 80 8 44 17 80 21 80
4 0 13 34 20 75 7 41 16 75 21 75 4 0 8 8 8 18 0 24 31 145 40 157 5 5 14 35
21 65 7 30 16 60 21 66 5 6 6 14 2 17 -3 4 -1 12 4 19 6 7 18 46 28 86 11 39
23 72 28 72 5 0 7 7 4 15 -4 8 -3 17 2 19 4 3 14 30 21 61 7 30 17 55 22 55 5
0 6 5 2 11 -3 6 -2 14 3 18 5 3 17 36 27 74 10 37 22 67 28 67 5 0 6 5 3 10
-4 6 -2 16 3 23 6 7 18 39 27 72 10 33 23 63 29 67 6 4 7 8 2 8 -5 0 -4 6 1
13 6 6 21 44 33 82 13 39 26 72 30 75 4 3 17 37 30 75 13 39 28 73 34 77 6 4
7 8 2 8 -5 0 -4 6 2 13 6 7 23 46 38 87 14 41 30 77 34 80 4 3 18 33 30 68 12
34 26 62 31 62 5 0 6 7 3 15 -4 8 -2 15 3 15 6 0 23 33 38 73 16 39 33 75 39
79 7 5 7 8 1 8 -6 0 -6 3 0 8 6 4 23 37 39 75 16 37 32 67 37 67 5 0 8 3 7 8
-3 13 54 132 63 132 5 0 8 3 7 8 -3 8 72 159 138 277 24 44 62 114 83 156 22
42 47 83 55 91 8 8 31 48 51 89 21 41 41 76 44 79 4 3 22 31 40 63 18 31 37
57 42 57 6 0 8 4 4 9 -3 5 1 15 8 23 7 7 30 44 51 81 21 37 43 73 50 80 7 7
29 40 50 75 22 34 43 62 47 62 5 0 8 3 7 8 -2 8 80 133 169 258 32 45 85 119
117 165 33 46 64 89 70 94 6 6 34 41 61 79 26 38 56 77 64 85 9 9 34 41 56 71
35 50 75 98 195 240 21 25 64 77 95 115 32 39 61 72 65 75 5 3 21 22 37 42
166 208 811 851 1078 1074 39 33 106 90 151 129 44 38 120 102 168 140 49 39
103 82 121 98 18 15 36 27 39 27 4 0 17 10 29 21 31 30 439 334 489 364 9 6
49 33 89 60 40 28 81 55 90 60 10 6 55 35 101 66 119 80 192 126 202 127 5 0
12 4 15 9 9 13 157 103 170 103 6 0 11 5 11 10 0 6 5 10 10 10 6 0 39 17 73
38 75 47 203 120 295 168 37 20 81 45 98 55 17 10 34 16 37 12 4 -3 7 -1 7 5
0 7 5 12 11 12 6 0 37 16 70 35 32 19 59 31 59 27 0 -4 4 -2 8 3 9 12 128 69
138 66 4 -2 10 1 13 6 6 9 173 92 291 145 237 107 331 148 428 184 35 13 76
31 91 39 16 8 39 16 52 19 13 3 55 18 94 35 38 16 73 27 77 25 4 -3 8 0 8 7 0
7 3 10 6 6 3 -3 31 5 62 19 30 13 57 22 60 20 2 -3 11 2 19 10 8 8 18 12 23 9
4 -3 33 6 64 20 31 14 68 27 83 30 16 2 57 16 92 30 35 13 68 22 72 19 5 -3 9
0 9 5 0 6 9 11 20 11 10 0 42 9 70 20 28 11 56 18 61 15 5 -4 9 -1 9 5 0 6 6
10 13 8 6 -1 49 10 95 26 45 15 93 29 105 31 12 2 37 8 56 14 19 6 38 8 42 5
5 -3 9 0 9 6 0 7 7 10 15 6 8 -3 15 -1 15 5 0 6 4 8 9 5 5 -3 34 3 66 14 32
11 61 17 66 14 5 -3 9 -1 9 5 0 5 8 9 18 9 9 -1 44 7 77 16 33 10 70 18 83 18
12 0 22 5 22 10 0 5 4 7 9 4 5 -3 32 1 60 10 28 8 56 12 61 9 6 -3 10 -2 10 3
0 5 10 10 23 10 12 0 48 7 79 17 32 9 62 14 68 10 5 -3 10 -1 10 5 0 7 6 10
14 7 8 -3 36 1 62 9 27 8 54 12 61 10 7 -3 15 -1 18 4 3 5 13 8 23 8 9 -1 40
4 69 11 29 7 57 10 63 6 5 -3 10 -1 10 5 0 7 6 10 13 7 8 -3 40 1 73 9 32 7
86 16 118 19 33 3 62 8 66 10 4 2 31 7 61 10 30 3 77 10 105 15 28 6 55 10 60
9 5 -1 11 0 14 1 6 2 49 7 125 14 28 2 51 5 53 6 1 2 14 4 30 5 119 11 213 18
245 19 20 1 37 4 37 8 0 3 17 6 38 5 20 0 75 3 122 6 187 14 323 20 487 21 95
1 173 4 173 7 0 9 318 2 332 -7 5 -4 13 -2 17 4 5 8 33 8 97 2 50 -5 191 -11
313 -14 137 -2 226 -8 230 -14 3 -6 82 -13 184 -17 97 -4 177 -12 177 -16 0
-5 42 -9 94 -9 53 0 98 -4 101 -10 3 -5 37 -10 76 -10 38 0 69 -4 69 -9 0 -4
28 -9 62 -10 34 -1 65 -5 68 -9 6 -9 5 -8 113 -17 92 -8 87 -10 91 38 1 17 18
27 31 18 5 -5 34 -14 63 -22 28 -7 52 -17 52 -22 0 -4 9 -5 20 -2 11 3 20 2
20 -3 0 -5 29 -15 65 -22 36 -7 65 -17 65 -22 0 -5 9 -7 19 -3 11 3 22 2 25
-4 3 -5 29 -12 56 -16 28 -4 50 -11 50 -17 0 -5 9 -6 20 -3 12 4 26 2 33 -3 7
-6 38 -13 70 -17 31 -4 57 -11 57 -16 0 -5 10 -9 23 -8 28 1 107 -11 127 -18
16 -7 26 -8 128 -19 34 -3 62 -10 62 -14 0 -4 33 -8 73 -9 39 -1 74 -6 75 -11
2 -6 38 -10 80 -10 43 0 145 -5 227 -11 123 -9 365 -15 385 -9 3 0 55 3 115 5
61 2 153 7 205 11 52 4 110 8 128 8 17 1 32 4 32 7 0 5 24 7 133 13 15 0 27 5
27 10 0 4 9 6 19 3 11 -2 47 2 81 10 34 8 65 12 68 9 3 -3 11 -1 19 6 7 6 16
8 19 6 3 -3 30 1 60 8 30 8 59 12 64 9 6 -3 10 -1 10 5 0 7 6 10 13 7 6 -2 41
4 76 14 35 10 81 21 102 24 21 3 64 15 95 25 31 11 60 17 65 14 5 -3 9 0 9 6
0 6 4 9 8 6 5 -3 32 4 61 15 29 10 56 17 61 14 4 -3 10 0 12 6 2 6 15 13 28
14 14 2 54 15 90 29 35 15 74 28 87 30 12 3 43 14 68 25 26 12 51 18 56 15 5
-3 9 0 9 6 0 6 5 8 10 5 6 -3 10 -1 10 4 0 6 6 11 14 11 13 0 79 28 250 108
43 20 81 37 85 37 3 0 40 19 82 43 42 23 79 42 82 42 3 0 32 16 63 34 32 19
61 33 66 30 4 -3 8 0 8 6 0 6 12 16 28 23 48 21 407 254 455 295 9 8 17 12 17
7 0 -4 9 4 21 19 11 14 25 26 31 26 6 0 27 15 48 33 20 17 45 39 56 47 137
108 266 221 386 338 58 58 110 108 115 111 14 10 206 223 245 271 20 25 49 59
64 77 29 31 87 107 177 232 26 36 53 73 61 82 7 8 34 49 61 90 26 41 51 76 55
79 4 3 26 39 49 80 68 121 114 195 123 198 4 2 6 8 2 13 -3 5 0 9 6 9 6 0 8 5
5 10 -3 6 -1 10 6 10 7 0 10 2 7 5 -3 3 18 50 46 103 29 53 63 123 76 155 13
31 28 57 32 57 5 0 7 4 3 9 -3 5 -1 12 4 15 5 3 19 35 32 71 12 36 26 65 31
65 4 0 7 3 6 8 -1 4 3 18 9 32 6 14 19 51 29 83 10 31 21 57 25 57 4 0 15 29
24 65 10 36 22 65 27 65 5 0 6 5 3 10 -4 6 -2 16 3 23 5 7 18 45 28 85 10 39
21 72 25 72 4 0 12 29 19 65 7 36 16 65 21 65 5 0 6 7 3 15 -4 8 -2 21 4 28 5
6 15 44 22 82 7 39 16 75 20 80 4 6 11 35 15 65 4 30 10 60 13 65 4 6 8 21 9
35 4 44 14 105 20 120 7 17 9 34 19 133 3 37 10 67 15 67 5 0 9 38 9 85 0 47
4 85 9 85 4 0 12 55 16 123 10 140 13 707 5 707 -3 0 -6 36 -5 80 0 44 -3 80
-7 80 -4 0 -6 15 -6 33 1 33 -9 152 -12 152 -2 0 -3 9 -13 101 -2 23 -7 46
-11 53 -4 6 -5 15 -2 19 3 5 -2 37 -10 71 -8 35 -12 67 -8 72 3 5 0 9 -6 9 -7
0 -10 6 -7 14 3 8 -1 40 -9 71 -9 32 -17 69 -19 84 -1 14 -9 46 -15 71 -7 25
-14 54 -16 65 -1 11 -3 20 -4 20 -1 0 -4 12 -6 27 -2 14 -13 52 -24 83 -11 32
-17 61 -14 66 3 5 0 9 -7 9 -7 0 -10 3 -6 6 3 3 -5 36 -18 72 -13 36 -22 69
-19 74 3 4 0 8 -6 8 -7 0 -10 5 -8 12 3 7 -8 41 -23 77 -15 36 -25 69 -23 73
3 4 0 8 -7 8 -7 0 -10 3 -6 6 3 4 -1 23 -9 43 -9 20 -36 86 -61 146 -54 134
-166 372 -204 437 -16 26 -26 48 -24 48 3 0 -13 29 -35 65 -22 36 -41 71 -43
78 -1 6 -9 17 -17 24 -8 7 -11 13 -7 13 5 0 -14 33 -40 73 -27 39 -89 132
-139 206 -49 74 -110 162 -136 195 -26 34 -64 83 -85 111 -138 181 -339 395
-632 675 -76 72 -303 250 -506 395 -54 39 -224 149 -257 166 -20 10 -54 31
-75 45 -21 14 -65 40 -98 56 -33 17 -62 34 -65 38 -3 4 -39 22 -80 40 -41 18
-77 36 -80 40 -3 4 -34 20 -70 35 -36 15 -78 35 -95 45 -16 9 -54 26 -82 36
-29 10 -53 21 -53 26 0 4 -7 5 -15 2 -8 -4 -15 -2 -15 3 0 5 -34 20 -75 33
-41 13 -75 27 -75 30 0 4 -29 15 -65 25 -36 9 -65 21 -65 25 0 5 -9 6 -20 3
-11 -3 -20 -1 -20 4 0 5 -33 17 -72 28 -40 10 -77 21 -83 24 -11 6 -7 5 -95
26 -36 9 -74 20 -85 25 -11 5 -49 15 -85 21 -36 7 -70 15 -75 20 -6 4 -38 11
-73 15 -34 3 -62 10 -62 14 0 4 -12 8 -27 8 -37 1 -104 12 -123 20 -8 3 -28 7
-45 8 -96 8 -152 16 -170 24 -11 5 -56 11 -100 13 -44 2 -114 10 -155 16 -41
7 -140 12 -220 13 -209 0 -255 11 -215 51 8 9 15 21 15 27 0 15 -44 30 -91 30
-21 0 -39 4 -39 8 0 4 -18 9 -40 10 -22 2 -71 7 -108 13 -37 6 -92 13 -122 16
-30 3 -59 8 -65 12 -5 4 -32 9 -60 10 -27 1 -63 6 -80 11 -28 8 -145 22 -190
22 -11 1 -40 5 -65 10 -25 5 -63 9 -85 9 -22 1 -71 6 -110 14 -38 7 -99 13
-135 14 -36 1 -69 7 -74 12 -6 5 -57 9 -114 9 -57 0 -112 5 -122 10 -11 6
-103 14 -204 19 -102 5 -191 13 -198 17 -16 10 -731 54 -740 45 -4 -3 -58 -3
-120 2 -62 4 -196 9 -298 11 -102 2 -195 6 -208 10 -14 5 -22 3 -22 -4 0 -7
-12 -9 -37 -4 -41 8 -623 12 -623 4z"/>
</g>
</svg>
